
<svg width="32" height="33" viewBox="0 0 32 33" fill="none" xmlns="http://www.w3.org/2000/svg">
<g clip-path="url(#clip0_87_8)">
<path fill-rule="evenodd" clip-rule="evenodd" d="M22.8864 20.7926L9.03099 28.7917L8.22343 28.3257L7.2889 27.7857L2.144 24.8156L2.144 1.72825L3.88609 2.73432L3.88609 23.8096L9.03099 26.7796L10.7731 25.7736L5.62818 22.8035L5.62818 3.74036L7.37027 4.7464V21.7975L12.5152 24.7675L14.2573 23.7615L9.11237 20.7914V5.75123L10.8545 6.75727V19.7853L10.9962 19.868L15.9994 22.7554L21.1443 19.7853L21.1443 13.8452L15.9994 10.8752L12.5966 12.8392V10.8271L15.9994 8.86308L22.8864 12.8392L22.8864 20.7914V20.7926ZM29.856 24.8156L29.856 16.8153V8.81498L22.9283 4.81545L16.0006 0.815919L12.5978 2.77992L12.5978 4.79203L16.0006 2.82802L28.1139 9.82228L28.1139 23.8108L14.2573 31.8098L15.9994 32.8159L29.8547 24.8156H29.856ZM26.3718 22.8035L12.5164 30.8038L10.7743 29.7978L24.6297 21.7987L24.6297 11.8344L16.0006 6.85221L12.5978 8.81621V6.80414L16.0006 4.8401L26.3718 10.8283L26.3718 22.8035Z" fill="#EA580C"/>
</g>
<defs>
<clipPath id="clip0_87_8">
<rect width="32" height="32" fill="white" transform="translate(0 0.815918)"/>
</clipPath>
</defs>
</svg>
