
<svg width="32" height="32" viewBox="0 0 32 32" fill="none" xmlns="http://www.w3.org/2000/svg">
<g clip-path="url(#clip0_87_10)">
<path d="M29.7549 5.3787C28.9292 5.3787 28.2598 6.04939 28.2598 6.87673C28.2598 7.70408 28.9292 8.37477 29.7549 8.37477C30.5806 8.37477 31.25 7.70408 31.25 6.87673C31.25 6.04939 30.5806 5.3787 29.7549 5.3787Z" fill="#10A37F"/>
<path d="M25.8248 5.3787C24.999 5.3787 24.3296 6.04939 24.3296 6.87673C24.3296 7.70408 24.999 8.37477 25.8248 8.37477C26.6505 8.37477 27.3199 7.70408 27.3199 6.87673C27.3199 6.04939 26.6505 5.3787 25.8248 5.3787Z" fill="#10A37F"/>
<path d="M25.8248 13.2537C24.999 13.2537 24.3296 13.9244 24.3296 14.7518C24.3296 15.5791 24.999 16.2498 25.8248 16.2498C26.6505 16.2498 27.3199 15.5791 27.3199 14.7518C27.3199 13.9244 26.6505 13.2537 25.8248 13.2537Z" fill="#10A37F"/>
<path d="M21.8948 24.1249H22.0689C22.3453 24.1249 22.6105 24.2349 22.8061 24.4307L24.0237 25.6498C24.2196 25.8459 24.3296 26.112 24.3296 26.3894V26.5644C24.3296 27.3918 24.999 28.0625 25.8248 28.0625C26.6505 28.0625 27.3199 27.3918 27.3199 26.5644C27.3199 25.7371 26.6505 25.0664 25.8248 25.0664H25.6501C25.3732 25.0664 25.1076 24.9561 24.9119 24.7599L23.6951 23.5398C23.4997 23.3439 23.3899 23.0782 23.3899 22.8012V22.6268C23.3899 21.7995 22.7205 21.1288 21.8948 21.1288C21.0691 21.1288 20.3997 21.7995 20.3997 22.6268C20.3997 23.4542 21.0691 24.1249 21.8948 24.1249Z" fill="#10A37F"/>
<path d="M15.5119 14.527C14.6868 14.527 14.0168 15.1971 14.0168 16.0243C14.0168 16.8515 14.6868 17.5216 15.5119 17.5216C16.3369 17.5216 17.007 16.8515 17.007 16.0243C17.007 15.1971 16.3369 14.527 15.5119 14.527Z" fill="#10A37F"/>
<path d="M3.15628 20.4934L4.3727 21.7122C4.56846 21.9083 4.67843 22.1743 4.67843 22.4517V22.6262C4.67843 23.4541 5.34866 24.125 6.17468 24.125C7.00028 24.125 7.67017 23.4544 7.67017 22.627C7.67017 21.7996 7.00078 21.1289 6.17505 21.1289H6.00036C5.72345 21.1289 5.45789 21.0186 5.26216 20.8224L4.04543 19.6024C3.85001 19.4064 3.74023 19.1407 3.74023 18.8637V18.6893C3.74023 17.8619 3.07084 17.1912 2.24511 17.1912C1.41938 17.1912 0.75 17.862 0.75 18.6893C0.75 19.5166 1.41939 20.1874 2.24512 20.1874H2.41896C2.69551 20.1874 2.96073 20.2974 3.15628 20.4934Z" fill="#10A37F"/>
<path d="M14.0353 25.0663C13.2096 25.0663 12.5402 25.737 12.5402 26.5643C12.5402 27.3917 13.2096 28.0623 14.0353 28.0623C14.861 28.0623 15.5304 27.3917 15.5304 26.5643C15.5304 25.737 14.861 25.0663 14.0353 25.0663Z" fill="#10A37F"/>
<path d="M2.24524 21.1288C1.41951 21.1288 0.750124 21.7995 0.750124 22.6268C0.750124 23.4542 1.41951 24.1249 2.24524 24.1249C3.07097 24.1249 3.74035 23.4542 3.74035 22.6268C3.74035 21.7995 3.07097 21.1288 2.24524 21.1288Z" fill="#10A37F"/>
<path d="M6.17506 17.1912C5.34932 17.1912 4.67994 17.862 4.67994 18.6893C4.67994 19.5166 5.34932 20.1874 6.17506 20.1874C7.00079 20.1874 7.67017 19.5166 7.67017 18.6893C7.67017 17.862 7.00079 17.1912 6.17506 17.1912Z" fill="#10A37F"/>
<path d="M21.8949 25.0663C21.0692 25.0663 20.3998 25.737 20.3998 26.5643C20.3998 27.3917 21.0692 28.0623 21.8949 28.0623C22.7207 28.0623 23.3901 27.3917 23.3901 26.5643C23.3901 25.737 22.7207 25.0663 21.8949 25.0663Z" fill="#10A37F"/>
<path d="M22.7624 1.19241C21.9367 1.19241 21.2673 1.8631 21.2673 2.69044C21.2673 3.51779 21.9367 4.18848 22.7624 4.18848C23.5881 4.18848 24.2575 3.51779 24.2575 2.69044C24.2575 1.8631 23.5881 1.19241 22.7624 1.19241Z" fill="#10A37F"/>
<path d="M19.1463 4.19364C18.3206 4.19364 17.6512 4.86436 17.6512 5.6917C17.6512 6.51904 18.3206 7.18976 19.1463 7.18976C19.9721 7.18976 20.6414 6.51904 20.6414 5.6917C20.6414 4.86436 19.9721 4.19364 19.1463 4.19364Z" fill="#10A37F"/>
<path d="M22.1319 7.77577C21.3062 7.77577 20.6368 8.44646 20.6368 9.2738C20.6368 10.1011 21.3062 10.7718 22.1319 10.7718C22.9576 10.7718 23.627 10.1011 23.627 9.2738C23.627 8.44646 22.9576 7.77577 22.1319 7.77577Z" fill="#10A37F"/>
<path d="M28.3566 0.433826C27.5309 0.433826 26.8615 1.10452 26.8615 1.93186C26.8615 2.75921 27.5309 3.4299 28.3566 3.4299C29.1823 3.4299 29.8517 2.75921 29.8517 1.93186C29.8517 1.10452 29.1823 0.433826 28.3566 0.433826Z" fill="#10A37F"/>
<path d="M11.6906 0C10.8649 -3.61646e-08 10.1955 0.670713 10.1955 1.49806C10.1955 2.3254 10.8649 2.99611 11.6906 2.99611C12.5164 2.99611 13.1857 2.3254 13.1857 1.49806C13.1857 0.670713 12.5164 3.61647e-08 11.6906 0Z" fill="#10A37F"/>
<path d="M29.7549 9.31621C28.9292 9.31621 28.2598 9.98691 28.2598 10.8143C28.2598 11.6416 28.9292 12.3123 29.7549 12.3123C30.5806 12.3123 31.25 11.6416 31.25 10.8143C31.25 9.98691 30.5806 9.31621 29.7549 9.31621Z" fill="#10A37F"/>
<path d="M26.7362 12.6181L27.9538 13.8372C28.1497 14.0333 28.2598 14.2994 28.2598 14.5769V14.7519C28.2598 15.5792 28.9292 16.2499 29.7549 16.2499C30.5806 16.2499 31.25 15.5792 31.25 14.7519C31.25 13.9246 30.5806 13.2539 29.7549 13.2539H29.5802C29.3033 13.2539 29.0377 13.1436 28.842 12.9473L27.6252 11.7273C27.4298 11.5313 27.3201 11.2657 27.3201 10.9886V10.8143C27.3201 9.98691 26.6507 9.31621 25.8249 9.31621C24.9992 9.31621 24.3298 9.98691 24.3298 10.8142C24.3298 11.6416 24.9992 12.3123 25.8249 12.3123H25.999C26.2755 12.3123 26.5406 12.4223 26.7362 12.6181Z" fill="#10A37F"/>
<path d="M26.7362 20.4931L27.9538 21.7122C28.1497 21.9084 28.2598 22.1744 28.2598 22.4519V22.627C28.2598 23.4543 28.9292 24.125 29.7549 24.125C30.5806 24.125 31.25 23.4543 31.25 22.627C31.25 21.7996 30.5806 21.1289 29.7549 21.1289H29.5802C29.3033 21.1289 29.0377 21.0186 28.842 20.8224L27.6253 19.6024C27.4298 19.4064 27.3201 19.1407 27.3201 18.8637L27.3201 18.6893C27.3201 17.8619 26.6507 17.1912 25.8249 17.1912C24.9992 17.1912 24.3298 17.8619 24.3298 18.6893C24.3298 19.5166 24.9992 20.1874 25.8249 20.1874H25.999C26.2755 20.1874 26.5406 20.2973 26.7362 20.4931Z" fill="#10A37F"/>
<path d="M13.1223 28.6976L11.9044 27.4773C11.7088 27.2813 11.599 27.0156 11.599 26.7385V26.5636C11.599 25.7366 10.9299 25.0663 10.1046 25.0663C9.27916 25.0663 8.61025 25.7371 8.61025 26.5639C8.61025 27.3912 9.2795 28.0623 10.1054 28.0623H10.2792C10.5557 28.0623 10.821 28.1724 11.0165 28.3684L12.2348 29.589C12.4303 29.7849 12.5402 30.0507 12.5402 30.3278V30.502C12.5402 31.3293 13.2096 32 14.0353 32C14.861 32 15.5304 31.3293 15.5304 30.502C15.5304 29.6746 14.861 29.0039 14.0353 29.0039H13.8604C13.5836 29.0039 13.3181 28.8937 13.1223 28.6976Z" fill="#10A37F"/>
<path d="M18.4281 8.25003C17.6023 8.25003 16.933 8.92072 16.933 9.74807C16.933 10.5754 17.6023 11.2461 18.4281 11.2461C19.2538 11.2461 19.9232 10.5754 19.9232 9.74807C19.9232 8.92072 19.2538 8.25003 18.4281 8.25003Z" fill="#10A37F"/>
<path d="M10.3905 6.00125C9.56475 6.00125 8.89536 6.67194 8.89536 7.49929C8.89536 8.32663 9.56475 8.99732 10.3905 8.99732C11.2162 8.99732 11.8856 8.32663 11.8856 7.49929C11.8856 6.67194 11.2162 6.00125 10.3905 6.00125Z" fill="#10A37F"/>
<path d="M10.1037 29.0038C9.27793 29.0038 8.60854 29.6745 8.60854 30.5018C8.60854 31.3292 9.27793 31.9999 10.1037 31.9999C10.9294 31.9999 11.5988 31.3292 11.5988 30.5018C11.5988 29.6745 10.9294 29.0038 10.1037 29.0038Z" fill="#10A37F"/>
<path d="M17.9651 29.0038C17.1394 29.0038 16.47 29.6745 16.47 30.5018C16.47 31.3292 17.1394 31.9999 17.9651 31.9999C18.7908 31.9999 19.4602 31.3292 19.4602 30.5018C19.4602 29.6745 18.7908 29.0038 17.9651 29.0038Z" fill="#10A37F"/>
<path d="M5.62313 0.868876C4.7974 0.868876 4.12802 1.53959 4.12802 2.36693C4.12802 3.19427 4.7974 3.86499 5.62313 3.86499C6.44887 3.86499 7.11825 3.19427 7.11825 2.36693C7.11825 1.53959 6.44887 0.868876 5.62313 0.868876Z" fill="#10A37F"/>
<path d="M20.982 28.6974L19.7653 27.4773C19.5699 27.2814 19.4601 27.0157 19.4601 26.7387V26.5643C19.4601 25.737 18.7907 25.0663 17.965 25.0663C17.1393 25.0663 16.4699 25.737 16.4699 26.5643C16.4699 27.3917 17.1393 28.0623 17.965 28.0623H18.1388C18.4154 28.0623 18.6806 28.1724 18.8762 28.3684L20.0944 29.589C20.29 29.7849 20.3998 30.0507 20.3998 30.3278V30.502C20.3998 31.3293 21.0692 32 21.8949 32C22.7207 32 23.3901 31.3293 23.3901 30.502C23.3901 29.6746 22.7207 29.0039 21.8949 29.0039H21.7202C21.4433 29.0039 21.1778 28.8937 20.982 28.6974Z" fill="#10A37F"/>
<path d="M14.0353 9.31621C13.2096 9.31621 12.5402 9.98691 12.5402 10.8143C12.5402 11.6416 13.2096 12.3123 14.0353 12.3123C14.861 12.3123 15.5304 11.6416 15.5304 10.8143C15.5304 9.98691 14.861 9.31621 14.0353 9.31621Z" fill="#10A37F"/>
<path d="M14.9404 4.70713C14.1147 4.70713 13.4453 5.37782 13.4453 6.20516C13.4453 7.03251 14.1147 7.7032 14.9404 7.7032C15.7661 7.7032 16.4355 7.03251 16.4355 6.20516C16.4355 5.37782 15.7661 4.70713 14.9404 4.70713Z" fill="#10A37F"/>
<path d="M25.8248 21.1288C24.999 21.1288 24.3296 21.7995 24.3296 22.6268C24.3296 23.4542 24.999 24.1249 25.8248 24.1249C26.6505 24.1249 27.3199 23.4542 27.3199 22.6268C27.3199 21.7995 26.6505 21.1288 25.8248 21.1288Z" fill="#10A37F"/>
<path d="M9.92981 24.1249H10.1036C10.9295 24.1249 11.5988 23.4537 11.5988 22.6264C11.5988 21.7996 10.9299 21.1288 10.1044 21.1288C9.2791 21.1288 8.61005 21.7991 8.61005 22.626V22.801C8.61005 23.0781 8.50019 23.3438 8.30464 23.5397L7.08669 24.7601C6.89094 24.9562 6.62545 25.0664 6.34861 25.0664H6.1737C5.34797 25.0664 4.67859 25.7371 4.67859 26.5644C4.67859 27.3919 5.34849 28.0625 6.17408 28.0625C7.00009 28.0625 7.67033 27.3916 7.67033 26.5637V26.3892C7.67033 26.1118 7.7803 25.8458 7.97605 25.6497L9.19249 24.4309C9.38804 24.2349 9.65326 24.1249 9.92981 24.1249Z" fill="#10A37F"/>
<path d="M29.7549 17.1912C28.9292 17.1912 28.2598 17.862 28.2598 18.6893C28.2598 19.5166 28.9292 20.1874 29.7549 20.1874C30.5806 20.1874 31.25 19.5166 31.25 18.6893C31.25 17.862 30.5806 17.1912 29.7549 17.1912Z" fill="#10A37F"/>
<path d="M2.24511 8.37477H2.41895C2.6955 8.37477 2.96072 8.48485 3.15627 8.68078L4.37272 9.89961C4.56847 10.0957 4.67844 10.3618 4.67844 10.6391V10.8136C4.67844 11.6415 5.34867 12.3124 6.17468 12.3124C7.00028 12.3124 7.67017 11.6419 7.67017 10.8144C7.67017 9.98704 7.00079 9.31635 6.17507 9.31635H6.00037C5.72345 9.31635 5.45789 9.20608 5.26216 9.00981L4.04542 7.78977C3.85 7.59382 3.74023 7.32814 3.74023 7.05113V6.87674C3.74023 6.04939 3.07084 5.3787 2.24511 5.3787C1.41938 5.3787 0.750001 6.04939 0.750001 6.87674C0.75 7.70408 1.41938 8.37477 2.24511 8.37477Z" fill="#10A37F"/>
<path d="M6.17506 5.3787C5.34933 5.3787 4.67994 6.04939 4.67994 6.87674C4.67994 7.70408 5.34933 8.37477 6.17506 8.37477C7.00078 8.37477 7.67017 7.70408 7.67017 6.87674C7.67017 6.04939 7.00078 5.3787 6.17506 5.3787Z" fill="#10A37F"/>
<path d="M6.17506 13.2539H6.00036C5.72345 13.2539 5.45789 13.1436 5.26216 12.9473L4.04542 11.7273C3.85 11.5313 3.74023 11.2657 3.74023 10.9886V10.8143C3.74023 9.98691 3.07084 9.31621 2.24511 9.31621C1.41938 9.31621 0.75 9.98691 0.75 10.8143C0.75 11.6416 1.41938 12.3123 2.24511 12.3123H2.41895C2.6955 12.3123 2.96072 12.4224 3.15627 12.6183L4.37272 13.8371C4.56847 14.0333 4.67844 14.2993 4.67844 14.5766V14.7511C4.67844 15.579 5.34867 16.2499 6.17468 16.2499C7.00028 16.2499 7.67017 15.5794 7.67017 14.7519C7.67017 13.9246 7.00079 13.2539 6.17506 13.2539Z" fill="#10A37F"/>
<path d="M2.24524 13.2537C1.41952 13.2537 0.750124 13.9244 0.750124 14.7518C0.750124 15.5791 1.41952 16.2498 2.24524 16.2498C3.07096 16.2498 3.74035 15.5791 3.74035 14.7518C3.74035 13.9244 3.07096 13.2537 2.24524 13.2537Z" fill="#10A37F"/>
</g>
<defs>
<clipPath id="clip0_87_10">
<rect width="32" height="32" fill="white"/>
</clipPath>
</defs>
</svg>
