<svg width="481" height="440" viewBox="0 0 481 440" fill="none" xmlns="http://www.w3.org/2000/svg">
<path d="M68.9925 34.5354C85.4302 14.8866 107.657 -0.321146 134.152 0.00515346C179.361 0.561207 203.8 40.5812 229.756 71.4586C243.216 87.4705 258.462 102.918 278.435 110.437C308.4 121.72 341.763 115.131 370.953 104.659C384.028 99.9688 399.519 93.372 414.244 96.7401C459.015 106.981 454.35 161.616 446.954 196.205C436.969 242.907 420.742 292.633 387.849 328.519C309.107 414.422 167.386 361.762 96.3568 293.215C91.1355 288.176 86.133 282.912 81.4299 277.385C69.2651 263.09 58.8237 247.322 50.6776 230.402C27.7646 182.807 24.6138 124.945 44.4663 75.7567C50.2364 61.4606 58.589 46.9715 68.9925 34.5354Z" fill="#92E3A9"/>
<path opacity="0.7" d="M68.9925 34.5354C85.4302 14.8866 107.657 -0.321146 134.152 0.00515346C179.361 0.561207 203.8 40.5812 229.756 71.4586C243.216 87.4705 258.462 102.918 278.435 110.437C308.4 121.72 341.763 115.131 370.953 104.659C384.028 99.9688 399.519 93.372 414.244 96.7401C459.015 106.981 454.35 161.616 446.954 196.205C436.969 242.907 420.742 292.633 387.849 328.519C309.107 414.422 167.386 361.762 96.3568 293.215C91.1355 288.176 86.133 282.912 81.4299 277.385C69.2651 263.09 58.8237 247.322 50.6776 230.402C27.7646 182.807 24.6138 124.945 44.4663 75.7567C50.2364 61.4606 58.589 46.9715 68.9925 34.5354Z" fill="white"/>
<path d="M0.585938 438.999H479.586" stroke="#263238" stroke-miterlimit="10" stroke-linecap="round" stroke-linejoin="round"/>
<path d="M291.386 191.366V11.5491H302.518" stroke="#263238" stroke-miterlimit="10" stroke-linecap="round" stroke-linejoin="round"/>
<path d="M291.386 212.772V207.996" stroke="#263238" stroke-miterlimit="10" stroke-linecap="round" stroke-linejoin="round"/>
<path d="M331.157 11.5491H446.052V229.53H291.386" stroke="#263238" stroke-miterlimit="10" stroke-linecap="round" stroke-linejoin="round"/>
<path d="M317.07 11.5491H327.165" stroke="#263238" stroke-miterlimit="10" stroke-linecap="round" stroke-linejoin="round"/>
<path d="M440.236 17.3528H297.202V223.728H440.236V17.3528Z" stroke="#263238" stroke-miterlimit="10" stroke-linecap="round" stroke-linejoin="round"/>
<path d="M433.584 28.4067V114.104H303.854V108.514" stroke="#263238" stroke-miterlimit="10" stroke-linecap="round" stroke-linejoin="round"/>
<path d="M303.854 95.4103V23.4375H433.584" stroke="#263238" stroke-miterlimit="10" stroke-linecap="round" stroke-linejoin="round"/>
<path d="M303.854 104.217V98.7834" stroke="#263238" stroke-miterlimit="10" stroke-linecap="round" stroke-linejoin="round"/>
<path d="M411.678 120.54H440.236" stroke="#263238" stroke-miterlimit="10" stroke-linecap="round" stroke-linejoin="round"/>
<path d="M401.521 120.54H405.562" stroke="#263238" stroke-miterlimit="10" stroke-linecap="round" stroke-linejoin="round"/>
<path d="M297.202 120.54H396.696" stroke="#263238" stroke-miterlimit="10" stroke-linecap="round" stroke-linejoin="round"/>
<path d="M361.53 114.103V111.153H373.491V112.831H368.719V114.103" stroke="#263238" stroke-miterlimit="10" stroke-linecap="round" stroke-linejoin="round"/>
<path d="M297.449 197.766C297.449 197.766 299.432 199.266 300.826 208.353C300.826 208.353 303.228 193.843 306.139 193.616C309.051 193.388 308.457 203.057 308.457 203.057C308.457 203.057 308.942 198.294 311.224 198.514C313.506 198.734 311.224 208.353 311.224 208.353C311.224 208.353 313.958 200.855 316.553 200.982C319.147 201.109 314.83 214.571 314.83 214.571C314.83 214.571 321.48 209.757 324.174 212.114C326.868 214.472 322.677 220.41 322.677 220.41C322.677 220.41 332.213 218.343 333.698 223.937" stroke="#263238" stroke-miterlimit="10" stroke-linecap="round" stroke-linejoin="round"/>
<path d="M333.699 218.514C333.699 218.514 337.857 215.792 341.123 217.061C341.123 217.061 339.044 213.892 341.123 211.954C343.202 210.017 345.874 217.061 345.874 217.061C345.874 217.061 346.171 205.267 350.329 205.861C354.485 206.455 350.329 217.061 350.329 217.061C350.329 217.061 357.752 210.48 359.534 212.773C361.316 215.066 358.346 218.514 358.346 218.514C358.346 218.514 362.799 217.092 366.066 220.41C366.066 220.41 371.044 215.333 376.573 214.605C376.573 214.605 372.897 203.93 374.679 201.777C376.461 199.625 379.698 211.093 379.698 211.093C379.698 211.093 381.111 203.633 385.757 203.056C385.757 203.056 381.891 200.953 383.036 197.764C384.182 194.576 389.528 198.512 389.528 198.512C389.528 198.512 387.332 192.904 390.806 191.364C394.278 189.825 395.73 196.058 395.73 196.058C395.73 196.058 396.698 189.528 400.783 189.887C404.835 190.244 403.543 197.763 403.543 197.763C403.543 197.763 407.395 191.788 409.458 192.397C413.581 193.613 412.329 203.055 412.329 203.055C412.329 203.055 418.083 199.056 419.565 200.898C421.163 202.884 413.581 207.993 413.581 207.993C413.581 207.993 419.289 208.628 422.842 211.952" stroke="#263238" stroke-miterlimit="10" stroke-linecap="round" stroke-linejoin="round"/>
<path d="M440.236 199.922C440.236 199.922 439.579 193.931 433.584 193.616C427.589 193.3 435.231 206.753 435.231 206.753C435.231 206.753 430.291 202.665 428.515 203.923C426.739 205.18 433.584 212.113 433.584 212.113C433.584 212.113 430.3 209.076 426.835 210.016C423.37 210.957 428.812 220.599 428.812 220.599C428.812 220.599 421.597 218.711 413.58 222.38" stroke="#263238" stroke-miterlimit="10" stroke-linecap="round" stroke-linejoin="round"/>
<path d="M236.04 385.494V438.687" stroke="#263238" stroke-miterlimit="10" stroke-linecap="round" stroke-linejoin="round"/>
<path d="M236.04 368.089V379.488" stroke="#263238" stroke-miterlimit="10" stroke-linecap="round" stroke-linejoin="round"/>
<path d="M12.1294 438.999V339.887H236.04V361.644" stroke="#263238" stroke-miterlimit="10" stroke-linecap="round" stroke-linejoin="round"/>
<path d="M44.7504 350.724H25.322V429.914" stroke="#263238" stroke-miterlimit="10" stroke-linecap="round" stroke-linejoin="round"/>
<path d="M222.847 438.687V350.724H56.0327" stroke="#263238" stroke-miterlimit="10" stroke-linecap="round" stroke-linejoin="round"/>
<path d="M213.539 329.625H207.365" stroke="#263238" stroke-miterlimit="10" stroke-linecap="round" stroke-linejoin="round"/>
<path d="M198.508 329.625H6.56348V339.815H241.606V329.625H217.475" stroke="#263238" stroke-miterlimit="10" stroke-linecap="round" stroke-linejoin="round"/>
<path d="M19.7988 264.315C19.7988 264.315 38.1969 265.767 38.9645 279.339C38.9645 279.339 20.3342 287.916 19.7988 264.315Z" stroke="#263238" stroke-miterlimit="10" stroke-linecap="round" stroke-linejoin="round"/>
<path d="M56.1941 267.684C56.1941 267.684 66.473 253.79 83.0793 260.915C83.0793 260.915 72.9385 277.714 56.1941 267.684Z" stroke="#263238" stroke-miterlimit="10" stroke-linecap="round" stroke-linejoin="round"/>
<path d="M81.6725 223.816C81.6725 223.816 84.6278 250.548 60.2935 243.186C60.2935 243.186 68.0203 223.535 81.6725 223.816Z" stroke="#263238" stroke-miterlimit="10" stroke-linecap="round" stroke-linejoin="round"/>
<path d="M51.794 208.936C51.794 208.936 71.039 219.313 56.8882 235.059C56.8882 235.059 43.3912 223.812 51.794 208.936Z" stroke="#263238" stroke-miterlimit="10" stroke-linecap="round" stroke-linejoin="round"/>
<path d="M28.1147 232.822C28.1147 232.822 49.0391 230.711 49.0391 250.079C49.0391 250.079 28.1147 250.904 28.1147 232.822Z" stroke="#263238" stroke-miterlimit="10" stroke-linecap="round" stroke-linejoin="round"/>
<path d="M43.7958 290.273C43.4915 283.777 43.494 275.416 47.4637 266.579C56.6206 246.191 59.7177 229.023 54.9315 216.921" stroke="#263238" stroke-miterlimit="10" stroke-linecap="round" stroke-linejoin="round"/>
<path d="M34.9885 238.029C34.9885 238.029 47.5309 243.012 51.794 255.93" stroke="#263238" stroke-miterlimit="10" stroke-linecap="round" stroke-linejoin="round"/>
<path d="M75.0579 234.51C75.0579 234.51 67.8102 244.383 55.5305 243.317" stroke="#263238" stroke-miterlimit="10" stroke-linecap="round" stroke-linejoin="round"/>
<path d="M75.0577 263.755C75.0577 263.755 54.984 269.538 47.0066 267.645" stroke="#263238" stroke-miterlimit="10" stroke-linecap="round" stroke-linejoin="round"/>
<path d="M25.7988 270.427C25.7988 270.427 34.7711 280.274 43.796 280.12" stroke="#263238" stroke-miterlimit="10" stroke-linecap="round" stroke-linejoin="round"/>
<path d="M67.6621 290.273H24.0399C23.4532 290.273 22.9778 290.749 22.9778 291.335V294.642C22.9778 295.229 23.4532 295.704 24.0399 295.704H25.3134L29.2013 329.625H62.5019L66.3886 295.704H67.6621C68.2488 295.704 68.7242 295.229 68.7242 294.642V291.335C68.7242 290.749 68.2488 290.273 67.6621 290.273Z" stroke="#263238" stroke-miterlimit="10"/>
<path d="M28.1147 295.705H53.4856" stroke="#263238" stroke-miterlimit="10" stroke-linecap="round" stroke-linejoin="round"/>
<path d="M58.2705 295.705H62.0838" stroke="#263238" stroke-miterlimit="10" stroke-linecap="round" stroke-linejoin="round"/>
<path d="M97.5822 438.999C97.5822 438.999 95.4934 431.023 97.9354 428.068C102.322 422.762 97.4 418.312 101.802 416.468L103.647 418.609C104.005 416.435 102.978 409.833 111.144 408.972C121.015 407.931 121.202 415.114 121.734 417.479L121.572 414.173C125.78 414.173 123.6 418.375 129.981 425.246C134.851 430.49 134.861 437.216 134.592 438.999H97.5822Z" fill="#263238"/>
<path d="M172.884 438.999C168.913 437.223 172.562 422.251 172.562 422.251C172.562 422.251 167.217 418.663 172.558 414.946C172.558 414.946 178.533 420.752 187.726 417.409C187.726 417.409 188.771 407.383 195.037 408.673C195.037 408.673 196.645 415.025 200.321 418.65C210.288 428.48 223.16 429.605 225.314 434.344C225.958 435.762 225.177 438.999 225.177 438.999H172.884Z" fill="#263238"/>
<path d="M155.889 200.06L160.789 210.416C160.789 210.416 180.999 252.194 193.386 300.027C193.679 301.159 200.086 323.821 194.949 380.24L197.878 390.141L194.68 406.492C194.68 406.492 199.49 413.448 199.319 415.718C199.319 415.718 187.442 417.936 183.485 420.062C180.399 421.721 171.149 430.855 171.149 430.855C168.526 430.313 168.296 419.701 168.296 419.701C168.296 419.701 162.8 325.52 161.232 321.458C159.664 317.395 150.014 299.902 134.986 259.858C134.986 259.858 134.646 315.796 130.631 329.941C127.058 342.529 131.289 377.763 131.289 377.763L128.877 416.983C128.877 416.983 137.33 425.767 130.472 428.122C130.472 428.122 125.893 419.308 112.839 417.305C106.205 416.287 97.933 428.068 97.933 428.068C95.0351 427.14 99.1687 412.34 99.1687 412.34C89.9165 342.529 96.7475 355.165 94.8982 321.045C93.7115 299.15 87.4953 205.458 94.787 197.845L155.889 200.06Z" fill="#BFBFBF"/>
<mask id="mask0_838_2119" style="mask-type:luminance" maskUnits="userSpaceOnUse" x="91" y="197" width="109" height="234">
<path d="M155.889 200.06L160.789 210.416C160.789 210.416 180.999 252.194 193.386 300.027C193.679 301.159 200.086 323.821 194.949 380.24L197.878 390.141L194.68 406.492C194.68 406.492 199.49 413.448 199.319 415.718C199.319 415.718 187.442 417.936 183.485 420.062C180.399 421.721 171.149 430.855 171.149 430.855C168.526 430.313 168.296 419.701 168.296 419.701C168.296 419.701 162.8 325.52 161.232 321.458C159.664 317.395 150.014 299.902 134.986 259.858C134.986 259.858 134.646 315.796 130.631 329.941C127.058 342.529 131.289 377.763 131.289 377.763L128.877 416.983C128.877 416.983 137.33 425.767 130.472 428.122C130.472 428.122 125.893 419.308 112.839 417.305C106.205 416.287 97.933 428.068 97.933 428.068C95.0351 427.14 99.1687 412.34 99.1687 412.34C89.9165 342.529 96.7475 355.165 94.8982 321.045C93.7115 299.15 87.4953 205.458 94.787 197.845L155.889 200.06Z" fill="white"/>
</mask>
<g mask="url(#mask0_838_2119)">
<path opacity="0.2" d="M91.2963 232.316C123.97 234.889 152.274 224.198 164.546 218.611C162.22 213.373 160.787 210.416 160.787 210.416L155.887 200.063L94.7845 197.85C92.1543 200.594 91.284 214.559 91.2963 232.316Z" fill="black"/>
</g>
<mask id="mask1_838_2119" style="mask-type:luminance" maskUnits="userSpaceOnUse" x="91" y="197" width="109" height="234">
<path d="M155.889 200.06L160.789 210.416C160.789 210.416 180.999 252.194 193.386 300.027C193.679 301.159 200.086 323.821 194.949 380.24L197.878 390.141L194.68 406.492C194.68 406.492 199.49 413.448 199.319 415.718C199.319 415.718 187.442 417.936 183.485 420.062C180.399 421.721 171.149 430.855 171.149 430.855C168.526 430.313 168.296 419.701 168.296 419.701C168.296 419.701 162.8 325.52 161.232 321.458C159.664 317.395 150.014 299.902 134.986 259.858C134.986 259.858 134.646 315.796 130.631 329.941C127.058 342.529 131.289 377.763 131.289 377.763L128.877 416.983C128.877 416.983 137.33 425.767 130.472 428.122C130.472 428.122 125.893 419.308 112.839 417.305C106.205 416.287 97.933 428.068 97.933 428.068C95.0351 427.14 99.1687 412.34 99.1687 412.34C89.9165 342.529 96.7475 355.165 94.8982 321.045C93.7115 299.15 87.4953 205.458 94.787 197.845L155.889 200.06Z" fill="white"/>
</mask>
<g mask="url(#mask1_838_2119)">
<path opacity="0.2" d="M135.26 260.573C150.129 300.106 159.679 317.412 161.238 321.454C162.13 323.79 164.32 355.773 166.025 382.617C167.989 358.2 169.999 332.426 170.18 327.369C170.541 317.311 163.27 303.504 162.175 299.936C161.08 296.38 163.553 292.509 163.553 292.509L150.468 276.015C150.908 270.416 143.987 245.986 143.987 245.986C139.866 249.882 136.242 258.179 135.26 260.573Z" fill="black"/>
</g>
<path d="M155.889 200.06L160.789 210.416C160.789 210.416 180.999 252.194 193.386 300.027C193.679 301.159 200.086 323.821 194.949 380.24L197.878 390.141L194.68 406.492C194.68 406.492 199.49 413.448 199.319 415.718C199.319 415.718 187.442 417.936 183.485 420.062C180.399 421.721 171.149 430.855 171.149 430.855C168.526 430.313 168.296 419.701 168.296 419.701C168.296 419.701 162.8 325.52 161.232 321.458C159.664 317.395 150.014 299.902 134.986 259.858C134.986 259.858 134.646 315.796 130.631 329.941C127.058 342.529 131.289 377.763 131.289 377.763L128.877 416.983C128.877 416.983 137.33 425.767 130.472 428.122C130.472 428.122 125.893 419.308 112.839 417.305C106.205 416.287 97.933 428.068 97.933 428.068C95.0351 427.14 99.1687 412.34 99.1687 412.34C89.9165 342.529 96.7475 355.165 94.8982 321.045C93.7115 299.15 87.4953 205.458 94.787 197.845L155.889 200.06Z" stroke="#263238" stroke-miterlimit="10" stroke-linecap="round" stroke-linejoin="round"/>
<path d="M134.987 259.857C134.987 259.857 142.456 245.442 148.826 241.423" stroke="#263238" stroke-miterlimit="10" stroke-linecap="round" stroke-linejoin="round"/>
<path d="M151.625 236.757C151.625 236.757 128.938 243.655 121.076 244.996" stroke="#263238" stroke-miterlimit="10" stroke-linecap="round" stroke-linejoin="round"/>
<path d="M140.013 213.605C140.991 232.49 147.654 235.707 141.212 239.826C141.212 239.826 141.389 248.66 138.188 254.258" stroke="#263238" stroke-miterlimit="10" stroke-linecap="round" stroke-linejoin="round"/>
<path d="M100.261 206.393C100.261 206.393 102.942 235.417 94.0085 240.876" stroke="#263238" stroke-miterlimit="10" stroke-linecap="round" stroke-linejoin="round"/>
<path d="M94.0084 215.744C94.0084 215.744 93.3386 235.071 94.0084 250.641C94.0084 250.641 96.2414 316.452 98.4744 324.714C100.707 332.977 95.0338 345.447 95.5264 381.192" stroke="#263238" stroke-miterlimit="10" stroke-linecap="round" stroke-linejoin="round"/>
<path d="M115.446 409.177C113.331 408.778 111.1 408.958 109.193 410.013" stroke="#263238" stroke-miterlimit="10" stroke-linecap="round" stroke-linejoin="round"/>
<path d="M128.88 416.983C126.078 414.311 122.813 411.96 119.267 410.389" stroke="#263238" stroke-miterlimit="10" stroke-linecap="round" stroke-linejoin="round"/>
<path d="M125.142 264.416C120.131 270.028 112.196 280.626 104.058 281.521" stroke="#263238" stroke-miterlimit="10" stroke-linecap="round" stroke-linejoin="round"/>
<path d="M132.866 255.268C131.325 257.215 129.735 259.124 128.121 261.009" stroke="#263238" stroke-miterlimit="10" stroke-linecap="round" stroke-linejoin="round"/>
<path d="M125.72 321.045C125.72 321.045 114.33 336.548 108.077 337.442" stroke="#263238" stroke-miterlimit="10" stroke-linecap="round" stroke-linejoin="round"/>
<path d="M139.119 257.054C139.119 257.054 159.403 313.549 166.457 319.132C166.457 319.132 167.257 360.666 167.481 375.18C167.705 389.694 171.055 408.979 171.055 408.979" stroke="#263238" stroke-miterlimit="10" stroke-linecap="round" stroke-linejoin="round"/>
<path d="M192.716 408.559C192.716 408.559 184.9 411.258 181.104 412.982C177.308 414.704 175.967 418.501 175.967 418.501" stroke="#263238" stroke-miterlimit="10" stroke-linecap="round" stroke-linejoin="round"/>
<path d="M172.952 298.759C162.056 291.92 147.696 283.382 141.908 271.344" stroke="#263238" stroke-miterlimit="10" stroke-linecap="round" stroke-linejoin="round"/>
<path d="M182.443 304.393C180.384 303.254 178.354 302.062 176.34 300.846" stroke="#263238" stroke-miterlimit="10" stroke-linecap="round" stroke-linejoin="round"/>
<path d="M148.127 221.243C142.268 221.158 135.855 220.388 130.856 217.083" stroke="#263238" stroke-miterlimit="10" stroke-linecap="round" stroke-linejoin="round"/>
<path d="M157.432 220.697C155.756 220.934 154.066 221.076 152.375 221.163" stroke="#263238" stroke-miterlimit="10" stroke-linecap="round" stroke-linejoin="round"/>
<path d="M168.292 90.9585C163.818 84.193 141.021 82.4625 126.395 82.4625C111.768 82.4625 94.0084 79.9951 85.9833 96.5178C79.8624 109.12 93.9583 175.75 93.9583 175.75L90.5055 204.516C117.008 212.829 162.404 210.99 162.404 210.99L156.293 184.985C156.293 184.985 172.766 97.7253 168.292 90.9585Z" fill="#263238"/>
<path d="M117.71 65.7344C117.71 65.7344 119.672 81.4151 113.707 84.7978C113.707 84.7978 116.69 96.299 127.129 97.0114C137.569 97.7239 142.235 86.4721 142.235 86.4721L117.71 65.7344Z" fill="white" stroke="#263238" stroke-miterlimit="10" stroke-linecap="round" stroke-linejoin="round"/>
<path d="M204.192 44.1608L172.897 47.0486L171.133 27.9424C171.016 26.6775 171.947 25.5581 173.212 25.4408L199.927 22.9758C201.192 22.8585 202.312 23.7897 202.429 25.0546L204.192 44.1608Z" fill="#92E3A9"/>
<mask id="mask2_838_2119" style="mask-type:luminance" maskUnits="userSpaceOnUse" x="171" y="22" width="34" height="26">
<path d="M204.192 44.1608L172.897 47.0486L171.133 27.9424C171.016 26.6775 171.947 25.5581 173.212 25.4408L199.927 22.9758C201.192 22.8585 202.312 23.7897 202.429 25.0546L204.192 44.1608Z" fill="white"/>
</mask>
<g mask="url(#mask2_838_2119)">
<path opacity="0.3" d="M204.192 44.1608L172.897 47.0486L171.133 27.9424C171.016 26.6775 171.947 25.5581 173.212 25.4408L199.927 22.9758C201.192 22.8585 202.312 23.7897 202.429 25.0546L204.192 44.1608Z" fill="black" fill-opacity="0.7"/>
</g>
<mask id="mask3_838_2119" style="mask-type:luminance" maskUnits="userSpaceOnUse" x="170" y="22" width="36" height="28">
<path d="M205.201 43.5064L174.303 49.2574L170.79 30.3931C170.557 29.1443 171.382 27.944 172.631 27.7109L199.007 22.8017C200.256 22.5687 201.456 23.3932 201.689 24.642L205.201 43.5064Z" fill="white"/>
</mask>
<g mask="url(#mask3_838_2119)">
<path opacity="0.3" d="M200.727 24.932L193.023 25.6428L194.445 41.0484L202.149 40.3376L200.727 24.932Z" fill="white" fill-opacity="0.7"/>
</g>
<path d="M204.192 44.1608L172.897 47.0486L171.133 27.9424C171.016 26.6775 171.947 25.5581 173.212 25.4408L199.927 22.9758C201.192 22.8585 202.312 23.7897 202.429 25.0546L204.192 44.1608Z" stroke="#263238" stroke-miterlimit="10" stroke-linecap="round" stroke-linejoin="round"/>
<path d="M250.439 39.8932L219.143 42.781L217.379 23.6748C217.263 22.4099 218.193 21.2905 219.458 21.1744L246.173 18.7094C247.438 18.5921 248.558 19.5234 248.674 20.7882L250.439 39.8932Z" fill="#92E3A9"/>
<mask id="mask4_838_2119" style="mask-type:luminance" maskUnits="userSpaceOnUse" x="217" y="18" width="34" height="25">
<path d="M250.439 39.8932L219.143 42.781L217.379 23.6748C217.263 22.4099 218.193 21.2905 219.458 21.1744L246.173 18.7094C247.438 18.5921 248.558 19.5234 248.674 20.7882L250.439 39.8932Z" fill="white"/>
</mask>
<g mask="url(#mask4_838_2119)">
<path opacity="0.3" d="M250.439 39.8932L219.143 42.781L217.379 23.6748C217.263 22.4099 218.193 21.2905 219.458 21.1744L246.173 18.7094C247.438 18.5921 248.558 19.5234 248.674 20.7882L250.439 39.8932Z" fill="black" fill-opacity="0.7"/>
</g>
<mask id="mask5_838_2119" style="mask-type:luminance" maskUnits="userSpaceOnUse" x="217" y="18" width="35" height="28">
<path d="M251.462 39.3325L220.563 45.0836L217.05 26.2193C216.818 24.9704 217.642 23.7702 218.891 23.5383L245.267 18.6292C246.516 18.3961 247.716 19.2206 247.948 20.4695L251.462 39.3325Z" fill="white"/>
</mask>
<g mask="url(#mask5_838_2119)">
<path opacity="0.3" d="M246.467 20.7117L241.813 21.1411L243.235 36.5467L247.889 36.1172L246.467 20.7117Z" fill="white" fill-opacity="0.7"/>
</g>
<path d="M250.439 39.8932L219.143 42.781L217.379 23.6748C217.263 22.4099 218.193 21.2905 219.458 21.1744L246.173 18.7094C247.438 18.5921 248.558 19.5234 248.674 20.7882L250.439 39.8932Z" stroke="#263238" stroke-miterlimit="10" stroke-linecap="round" stroke-linejoin="round"/>
<path d="M240.703 40.7914L209.408 43.6792L207.644 24.573C207.528 23.3081 208.458 22.1887 209.723 22.0726L236.439 19.6076C237.704 19.4903 238.823 20.4216 238.939 21.6864L240.703 40.7914Z" fill="#92E3A9" stroke="#263238" stroke-miterlimit="10" stroke-linecap="round" stroke-linejoin="round"/>
<path d="M286.95 36.5239L255.656 39.4117L253.892 20.3055C253.776 19.0406 254.706 17.9212 255.971 17.8039L282.686 15.3389C283.951 15.2228 285.071 16.1528 285.188 17.4177L286.95 36.5239Z" fill="#92E3A9" stroke="#263238" stroke-miterlimit="10" stroke-linecap="round" stroke-linejoin="round"/>
<path opacity="0.3" d="M237.239 21.5669L229.535 22.2778L230.957 37.6834L238.661 36.9724L237.239 21.5669Z" fill="white" fill-opacity="0.7"/>
<path opacity="0.3" d="M282.981 17.3413L275.277 18.0522L276.699 33.4578L284.403 32.7468L282.981 17.3413Z" fill="white" fill-opacity="0.7"/>
<path d="M300.237 30.8034L308.345 118.654L166.789 131.715L158.682 43.8651C158.399 40.7989 160.654 38.0993 163.709 37.817L294.19 25.7781C297.243 25.4958 299.954 27.7372 300.237 30.8034Z" fill="#92E3A9"/>
<mask id="mask6_838_2119" style="mask-type:luminance" maskUnits="userSpaceOnUse" x="158" y="25" width="151" height="107">
<path d="M300.237 30.8034L308.345 118.654L166.789 131.715L158.682 43.8651C158.399 40.7989 160.654 38.0993 163.709 37.817L294.19 25.7781C297.243 25.4958 299.954 27.7372 300.237 30.8034Z" fill="white"/>
</mask>
<g mask="url(#mask6_838_2119)">
<path opacity="0.3" d="M300.237 30.8034L308.345 118.654L166.789 131.715L158.682 43.8651C158.399 40.7989 160.654 38.0993 163.709 37.817L294.19 25.7781C297.243 25.4958 299.954 27.7372 300.237 30.8034Z" fill="black" fill-opacity="0.7"/>
</g>
<path d="M300.237 30.8034L308.345 118.654L166.789 131.715L158.682 43.8651C158.399 40.7989 160.654 38.0993 163.709 37.817L294.19 25.7781C297.243 25.4958 299.954 27.7372 300.237 30.8034Z" stroke="#263238" stroke-miterlimit="10" stroke-linecap="round" stroke-linejoin="round"/>
<path d="M300.237 30.8032L308.346 118.653L203.302 128.346L195.195 40.4956C194.911 37.4294 197.166 34.7298 200.222 34.4475L294.19 25.7767C297.243 25.4956 299.954 27.737 300.237 30.8032Z" fill="#92E3A9" stroke="#263238" stroke-miterlimit="10" stroke-linecap="round" stroke-linejoin="round"/>
<path opacity="0.3" d="M293.421 34.5843L203.627 42.8702C202.364 42.9863 201.245 42.0575 201.129 40.7938C201.013 39.5314 201.941 38.4119 203.205 38.2958L292.999 30.01C294.262 29.8939 295.38 30.8227 295.497 32.0864C295.614 33.35 294.683 34.4683 293.421 34.5843Z" fill="white" fill-opacity="0.7"/>
<path d="M135.63 34.6443C135.63 34.6443 114.918 30.4928 112.597 43.8271C110.276 57.1614 117.882 62.8258 117.882 62.8258L135.63 34.6443Z" fill="#263238"/>
<path d="M117.914 70.1485C115.792 64.2042 115.017 57.2187 116.849 49.5024C118.883 40.9404 129.081 29.1814 144.529 39.8772C152.494 45.3913 152.98 57.347 150.499 68.3055C149.908 70.9196 150.351 73.4762 149.484 75.8752C146.43 84.3125 140.844 90.8018 137.791 90.9497C132.685 91.199 122.492 85.0299 122.914 79.6539" fill="white"/>
<path d="M117.914 70.1485C115.792 64.2042 115.017 57.2187 116.849 49.5024C118.883 40.9404 129.081 29.1814 144.529 39.8772C152.494 45.3913 152.98 57.347 150.499 68.3055C149.908 70.9196 150.351 73.4762 149.484 75.8752C146.43 84.3125 140.844 90.8018 137.791 90.9497C132.685 91.199 122.492 85.0299 122.914 79.6539" stroke="#263238" stroke-miterlimit="10" stroke-linecap="round" stroke-linejoin="round"/>
<path d="M138.504 66.2757C138.504 66.2757 134.387 63.2937 130.422 65.733" stroke="#263238" stroke-miterlimit="10" stroke-linecap="round" stroke-linejoin="round"/>
<path d="M146.281 65.7342C146.281 65.7342 149.394 62.8794 151.422 63.2815" stroke="#263238" stroke-miterlimit="10" stroke-linecap="round" stroke-linejoin="round"/>
<path d="M132.687 70.85C132.687 71.6077 133.073 72.2224 133.548 72.2224C134.024 72.2224 134.41 71.6077 134.41 70.85C134.41 70.0923 134.024 69.4775 133.548 69.4775C133.072 69.4775 132.687 70.0923 132.687 70.85Z" fill="#263238"/>
<path d="M146.281 71.4611C146.757 71.4611 147.143 70.8467 147.143 70.0887C147.143 69.3308 146.757 68.7163 146.281 68.7163C145.805 68.7163 145.42 69.3308 145.42 70.0887C145.42 70.8467 145.805 71.4611 146.281 71.4611Z" fill="#263238"/>
<path d="M144.537 68.616C143.012 70.5982 145.147 78.1459 144.537 78.6799C143.927 79.214 140.038 77.6888 140.038 77.6888C140.038 77.6888 139.123 76.5449 141.029 75.9351" stroke="#263238" stroke-miterlimit="10" stroke-linecap="round" stroke-linejoin="round"/>
<path d="M141.021 82.4636C141.021 82.4636 135.807 82.4636 134.411 80.5669" stroke="#263238" stroke-miterlimit="10" stroke-linecap="round" stroke-linejoin="round"/>
<path d="M128.592 54.2296L128.185 60.532C128.185 60.532 123.712 62.8356 122.593 65.1906C121.475 67.5456 121.882 70.0875 121.882 70.0875C121.882 70.0875 119.166 65.3446 117.71 65.7332C117.18 65.8737 117.182 67.8572 117.182 67.8572C117.182 67.8572 111.105 54.2284 116.595 47.0119C122.085 39.7955 128.592 54.2296 128.592 54.2296Z" fill="#757575" stroke="#263238" stroke-miterlimit="10" stroke-linecap="round" stroke-linejoin="round"/>
<path d="M119.976 68.7163C119.976 68.7163 118.756 64.142 114.638 62.9223C110.521 61.7027 113.341 72.671 116.849 74.1302C120.357 75.5893 121.237 76.5695 121.445 75.274" fill="white"/>
<path d="M119.976 68.7163C119.976 68.7163 118.756 64.142 114.638 62.9223C110.521 61.7027 113.341 72.671 116.849 74.1302C120.357 75.5893 121.237 76.5695 121.445 75.274" stroke="#263238" stroke-miterlimit="10" stroke-linecap="round" stroke-linejoin="round"/>
<path d="M114.363 53.4279C114.027 52.9671 112.513 41.2338 120.268 35.9262C128.023 30.6175 141.147 31.2151 149.5 38.522C157.851 45.8289 155.465 58.4995 149.5 62.827V57.5402C149.5 57.5402 146.747 62.8465 138.503 63.2853L141.02 59.4002C141.02 59.4002 136.972 61.7858 129.813 61.6367C129.813 61.6367 133.172 58.9529 132.685 56.5662C132.685 56.5662 121.335 62.9614 114.363 53.4279Z" fill="#263238"/>
<path d="M115.821 95.8139C110.101 96.5007 101.969 103.967 107.307 117.224C110.692 125.628 138.505 120.632 138.505 120.632C148.821 116.387 163.891 101.075 174.95 93.9783C174.95 93.9783 172.617 79.3291 169.927 81.3895C157.432 90.9598 147.144 91.6246 129.711 100.004C129.711 100.004 119.422 95.3813 115.821 95.8139Z" fill="white" stroke="#263238" stroke-miterlimit="10" stroke-linecap="round" stroke-linejoin="round"/>
<path d="M128.592 112.091C128.421 117.569 130.675 118.537 134.464 119.827Z" fill="white"/>
<path d="M128.592 112.091C128.421 117.569 130.675 118.537 134.464 119.827" stroke="#263238" stroke-miterlimit="10" stroke-linecap="round" stroke-linejoin="round"/>
<path d="M169.062 82.4636C169.314 81.6729 173.906 73.5375 175.258 71.4611C176.61 69.3848 182.413 67.5199 184.669 66.277C186.925 65.0341 187.087 63.1387 188.376 64.4891C189.665 65.8395 188.376 68.9387 181.607 72.2237C181.607 72.2237 187.012 72.484 188.822 72.2237C190.632 71.9634 192.244 70.3148 193.05 71.4611C193.855 72.6075 194.017 74.6337 189.988 75.8778C185.958 77.1206 184.025 77.051 184.025 77.051C184.025 77.051 189.183 78.2547 189.827 78.735C190.472 79.2153 191.439 80.3299 192.406 80.4973C193.372 80.6659 194.42 81.7389 192.648 83.0026C190.874 84.2662 188.537 83.0832 188.537 83.0832C188.537 83.0832 193.211 85.3392 191.76 86.7899C190.31 88.2405 185.636 87.9178 185.636 87.9178C185.636 87.9178 178.706 96.2978 172.904 94.5245" fill="white"/>
<path d="M169.062 82.4636C169.314 81.6729 173.906 73.5375 175.258 71.4611C176.61 69.3848 182.413 67.5199 184.669 66.277C186.925 65.0341 187.087 63.1387 188.376 64.4891C189.665 65.8395 188.376 68.9387 181.607 72.2237C181.607 72.2237 187.012 72.484 188.822 72.2237C190.632 71.9634 192.244 70.3148 193.05 71.4611C193.855 72.6075 194.017 74.6337 189.988 75.8778C185.958 77.1206 184.025 77.051 184.025 77.051C184.025 77.051 189.183 78.2547 189.827 78.735C190.472 79.2153 191.439 80.3299 192.406 80.4973C193.372 80.6659 194.42 81.7389 192.648 83.0026C190.874 84.2662 188.537 83.0832 188.537 83.0832C188.537 83.0832 193.211 85.3392 191.76 86.7899C190.31 88.2405 185.636 87.9178 185.636 87.9178C185.636 87.9178 178.706 96.2978 172.904 94.5245" stroke="#263238" stroke-miterlimit="10" stroke-linecap="round" stroke-linejoin="round"/>
<path d="M177.336 71.46C177.336 71.46 178.625 71.6396 179.028 73.0902C179.432 74.5409 180.609 74.6215 181.335 76.2322C182.06 77.8442 181.849 80.3446 182.574 81.1891C183.299 82.0335 182.574 85.6595 182.574 85.6595" stroke="#263238" stroke-miterlimit="10" stroke-linecap="round" stroke-linejoin="round"/>
<path d="M117.022 94.77C114.021 90.9583 107.307 92.6815 107.307 92.6815" stroke="white" stroke-miterlimit="10" stroke-linecap="round" stroke-linejoin="round"/>
<path d="M103.641 85.6606C103.641 85.6606 110.555 86.6701 112.597 92.4298" stroke="white" stroke-miterlimit="10" stroke-linecap="round" stroke-linejoin="round"/>
<path d="M115.821 122.105C115.821 122.105 109.081 127.319 98.8057 119.825" stroke="white" stroke-miterlimit="10" stroke-linecap="round" stroke-linejoin="round"/>
<path d="M107.307 123.675C107.307 123.675 103.883 128.405 95.5422 128.346" stroke="white" stroke-miterlimit="10" stroke-linecap="round" stroke-linejoin="round"/>
<path d="M150.179 183.184C150.179 183.184 132.53 197.242 114.6 195.439" stroke="white" stroke-miterlimit="10" stroke-linecap="round" stroke-linejoin="round"/>
<path d="M102.472 152.273C102.472 152.273 129.872 172.362 150.179 173.652" stroke="white" stroke-miterlimit="10" stroke-linecap="round" stroke-linejoin="round"/>
<path d="M336.292 155.057L331.349 181.633L291.486 205.851L296.992 215.974C296.992 215.974 343.088 201.912 344.203 198.63C345.318 195.346 355.955 160.529 355.955 160.529L336.292 155.057Z" fill="#263238"/>
<path d="M353.703 110.135L351.039 142.35L349.633 159.251C341.946 162.991 334.429 157.369 333.965 157.003C333.952 156.991 333.94 156.991 333.94 156.991C336.104 150.868 338.536 116.246 353.703 110.135Z" fill="#999999" stroke="#263238" stroke-miterlimit="10" stroke-linecap="round" stroke-linejoin="round"/>
<path d="M351.039 142.35L349.633 159.252C341.946 162.991 334.429 157.369 333.965 157.003C334.295 157.149 338.34 158.86 340.968 156.991C340.968 156.991 338.707 154.412 338.548 153.764C338.389 153.129 340.968 152.958 340.968 152.958C340.968 152.958 339.257 139.258 343.816 133.465C345.6 131.192 348.387 135.836 351.039 142.35Z" fill="#263238"/>
<path d="M381.365 408.465L382.637 412.048C382.637 412.048 379.692 416.992 376.429 420.783C376.429 420.783 375.173 420.384 373.198 422.157C371.223 423.93 371.043 426.752 371.043 426.752C371.043 426.752 361.713 437.95 349.861 438.111C338.008 438.273 341.591 432.31 341.591 432.31L381.365 408.465Z" fill="#92E3A9" stroke="#263238" stroke-miterlimit="10" stroke-linecap="round" stroke-linejoin="round"/>
<path d="M370.234 379.974C370.234 379.974 354.353 374.119 351.233 385.829C351.233 385.829 354.069 398.725 352.368 405.769C350.666 412.812 342.121 426.285 341.591 428.85C340.559 433.854 341.337 434.193 341.337 434.193C341.337 434.193 347.561 437.789 355.912 433.939C364.263 430.088 378.741 413.523 381.01 410.113C383.279 406.702 373.92 393.212 373.92 393.212L370.234 379.974Z" fill="white"/>
<mask id="mask7_838_2119" style="mask-type:luminance" maskUnits="userSpaceOnUse" x="341" y="378" width="41" height="58">
<path d="M370.234 379.974C370.234 379.974 354.353 374.119 351.233 385.829C351.233 385.829 354.069 398.725 352.368 405.769C350.666 412.812 342.121 426.285 341.591 428.85C340.559 433.854 341.337 434.193 341.337 434.193C341.337 434.193 347.561 437.789 355.912 433.939C364.263 430.088 378.741 413.523 381.01 410.113C383.279 406.702 373.92 393.212 373.92 393.212L370.234 379.974Z" fill="white"/>
</mask>
<g mask="url(#mask7_838_2119)">
<path opacity="0.4" d="M370.234 379.974C370.234 379.974 354.353 374.119 351.233 385.829C351.233 385.829 354.069 398.725 352.368 405.769C350.666 412.812 342.121 426.285 341.591 428.85C340.559 433.854 341.337 434.193 341.337 434.193C341.337 434.193 347.561 437.789 355.912 433.939C364.263 430.088 378.741 413.523 381.01 410.113C383.279 406.702 373.92 393.212 373.92 393.212L370.234 379.974Z" fill="#92E3A9"/>
</g>
<path d="M370.234 379.974C370.234 379.974 354.353 374.119 351.233 385.829C351.233 385.829 354.069 398.725 352.368 405.769C350.666 412.812 342.121 426.285 341.591 428.85C340.559 433.854 341.337 434.193 341.337 434.193C341.337 434.193 347.561 437.789 355.912 433.939C364.263 430.088 378.741 413.523 381.01 410.113C383.279 406.702 373.92 393.212 373.92 393.212L370.234 379.974Z" stroke="#263238" stroke-miterlimit="10" stroke-linecap="round" stroke-linejoin="round"/>
<path d="M362.104 396.531C362.104 396.531 364.743 408.228 358.129 419.514" stroke="#263238" stroke-miterlimit="10" stroke-linecap="round" stroke-linejoin="round"/>
<path d="M358.129 422.565C358.129 422.565 356.432 427.411 351.328 428.85C346.222 430.29 341.591 428.85 341.591 428.85L345.406 421.118C345.406 421.118 350.941 423.664 358.129 422.565Z" fill="#92E3A9" stroke="#263238" stroke-miterlimit="10" stroke-linecap="round" stroke-linejoin="round"/>
<path d="M360.377 417.909C360.377 417.909 352.067 418.405 347.727 416.711" stroke="#263238" stroke-miterlimit="10" stroke-linecap="round" stroke-linejoin="round"/>
<path d="M361.914 413.321C361.914 413.321 354.147 414.509 349.807 412.048" stroke="#263238" stroke-miterlimit="10" stroke-linecap="round" stroke-linejoin="round"/>
<path d="M363.238 408.23C363.238 408.23 356.425 409.225 351.985 407.115" stroke="#263238" stroke-miterlimit="10" stroke-linecap="round" stroke-linejoin="round"/>
<path d="M363.995 402.459C363.995 402.459 356.42 404.835 352.834 402.459" stroke="#263238" stroke-miterlimit="10" stroke-linecap="round" stroke-linejoin="round"/>
<path d="M365.129 388.205L366.453 396.531C366.453 396.531 356.433 403.139 349.807 394.889L349.838 386.201C349.838 386.201 352.296 392.058 365.129 388.205Z" fill="#92E3A9" stroke="#263238" stroke-miterlimit="10" stroke-linecap="round" stroke-linejoin="round"/>
<path d="M356.425 201.38C346.271 233.554 314.749 285.17 317.945 298.371C319.692 305.584 330.094 346.444 338.226 364.408C341.328 371.261 348.003 375.848 348.003 375.848L352.834 386.202C364.6 391.318 368.819 380.904 368.819 380.904L366.452 369.173C372.764 357.712 370.069 357.712 361.916 298.292C360.955 291.29 377.19 269.646 377.19 269.646L385.537 324.082L386.894 368.688L391.23 382.468C391.23 382.468 392.296 395.414 392.206 396.193H411.546L413.681 381.961C413.681 381.961 422.667 373.493 422.667 363.715C422.667 353.937 420.734 304.141 422.667 289.637C424.601 275.133 418.138 207.505 418.138 207.505L356.425 201.38Z" fill="#263238"/>
<path d="M252.201 194.366L220.887 191.674L222.531 172.556C222.64 171.292 223.755 170.354 225.02 170.462L251.75 172.761C253.015 172.869 253.952 173.984 253.843 175.249L252.201 194.366Z" fill="#92E3A9"/>
<mask id="mask8_838_2119" style="mask-type:luminance" maskUnits="userSpaceOnUse" x="220" y="170" width="34" height="25">
<path d="M252.201 194.366L220.887 191.674L222.531 172.556C222.64 171.292 223.755 170.354 225.02 170.462L251.75 172.761C253.015 172.869 253.952 173.984 253.843 175.249L252.201 194.366Z" fill="white"/>
</mask>
<g mask="url(#mask8_838_2119)">
<path opacity="0.3" d="M252.201 194.366L220.887 191.674L222.531 172.556C222.64 171.292 223.755 170.354 225.02 170.462L251.75 172.761C253.015 172.869 253.952 173.984 253.843 175.249L252.201 194.366Z" fill="black" fill-opacity="0.7"/>
</g>
<mask id="mask9_838_2119" style="mask-type:luminance" maskUnits="userSpaceOnUse" x="220" y="168" width="35" height="27">
<path d="M251.127 194.711L220.161 189.345L223.437 170.439C223.654 169.188 224.845 168.35 226.096 168.566L252.53 173.146C253.781 173.363 254.619 174.554 254.403 175.804L251.127 194.711Z" fill="white"/>
</mask>
<g mask="url(#mask9_838_2119)">
<path opacity="0.3" d="M252.169 174.828L244.461 174.165L243.135 189.578L250.843 190.241L252.169 174.828Z" fill="white" fill-opacity="0.7"/>
</g>
<path d="M252.201 194.366L220.887 191.674L222.531 172.556C222.64 171.292 223.755 170.354 225.02 170.462L251.75 172.761C253.015 172.869 253.952 173.984 253.843 175.249L252.201 194.366Z" stroke="#263238" stroke-miterlimit="10" stroke-linecap="round" stroke-linejoin="round"/>
<path d="M298.474 198.344L267.16 195.652L268.804 176.534C268.913 175.27 270.026 174.332 271.293 174.441L298.023 176.738C299.288 176.847 300.226 177.962 300.116 179.227L298.474 198.344Z" fill="#92E3A9"/>
<mask id="mask10_838_2119" style="mask-type:luminance" maskUnits="userSpaceOnUse" x="267" y="174" width="34" height="25">
<path d="M298.474 198.344L267.16 195.652L268.804 176.534C268.913 175.27 270.026 174.332 271.293 174.441L298.023 176.738C299.288 176.847 300.226 177.962 300.116 179.227L298.474 198.344Z" fill="white"/>
</mask>
<g mask="url(#mask10_838_2119)">
<path opacity="0.3" d="M298.474 198.344L267.16 195.652L268.804 176.534C268.913 175.27 270.026 174.332 271.293 174.441L298.023 176.738C299.288 176.847 300.226 177.962 300.116 179.227L298.474 198.344Z" fill="black" fill-opacity="0.7"/>
</g>
<mask id="mask11_838_2119" style="mask-type:luminance" maskUnits="userSpaceOnUse" x="266" y="172" width="35" height="27">
<path d="M297.407 198.606L266.441 193.241L269.717 174.335C269.934 173.084 271.124 172.245 272.376 172.462L298.81 177.041C300.061 177.258 300.9 178.449 300.682 179.7L297.407 198.606Z" fill="white"/>
</mask>
<g mask="url(#mask11_838_2119)">
<path opacity="0.3" d="M297.929 178.767L293.272 178.366L291.946 193.78L296.603 194.18L297.929 178.767Z" fill="white" fill-opacity="0.7"/>
</g>
<path d="M298.474 198.344L267.16 195.652L268.804 176.534C268.913 175.27 270.026 174.332 271.293 174.441L298.023 176.738C299.288 176.847 300.226 177.962 300.116 179.227L298.474 198.344Z" stroke="#263238" stroke-miterlimit="10" stroke-linecap="round" stroke-linejoin="round"/>
<path d="M288.733 197.507L257.419 194.814L259.063 175.697C259.172 174.432 260.286 173.495 261.552 173.604L288.283 175.901C289.548 176.01 290.485 177.125 290.378 178.39L288.733 197.507Z" fill="#92E3A9" stroke="#263238" stroke-miterlimit="10" stroke-linecap="round" stroke-linejoin="round"/>
<path d="M335.006 201.486L303.693 198.794L305.337 179.676C305.445 178.411 306.56 177.474 307.825 177.582L334.556 179.88C335.821 179.989 336.759 181.103 336.651 182.369L335.006 201.486Z" fill="#92E3A9" stroke="#263238" stroke-miterlimit="10" stroke-linecap="round" stroke-linejoin="round"/>
<path opacity="0.3" d="M288.695 177.974L280.987 177.312L279.661 192.725L287.369 193.388L288.695 177.974Z" fill="white" fill-opacity="0.7"/>
<path opacity="0.3" d="M334.464 181.904L326.756 181.241L325.43 196.654L333.138 197.317L334.464 181.904Z" fill="white" fill-opacity="0.7"/>
<path d="M349.096 198.204L341.538 286.104L199.904 273.927L207.463 186.028C207.727 182.959 210.423 180.702 213.48 180.964L344.032 192.188C347.088 192.451 349.36 195.136 349.096 198.204Z" fill="#92E3A9"/>
<mask id="mask12_838_2119" style="mask-type:luminance" maskUnits="userSpaceOnUse" x="199" y="180" width="151" height="107">
<path d="M349.096 198.204L341.538 286.104L199.904 273.927L207.463 186.028C207.727 182.959 210.423 180.702 213.48 180.964L344.032 192.188C347.088 192.451 349.36 195.136 349.096 198.204Z" fill="white"/>
</mask>
<g mask="url(#mask12_838_2119)">
<path opacity="0.3" d="M349.096 198.204L341.538 286.104L199.904 273.927L207.463 186.028C207.727 182.959 210.423 180.702 213.48 180.964L344.032 192.188C347.088 192.451 349.36 195.136 349.096 198.204Z" fill="black" fill-opacity="0.7"/>
</g>
<path d="M349.096 198.204L341.538 286.104L199.904 273.927L207.463 186.028C207.727 182.959 210.423 180.702 213.48 180.964L344.032 192.188C347.088 192.451 349.36 195.136 349.096 198.204Z" stroke="#263238" stroke-miterlimit="10" stroke-linecap="round" stroke-linejoin="round"/>
<path d="M349.096 198.205L341.538 286.104L236.435 277.068L243.994 189.168C244.258 186.1 246.954 183.843 250.01 184.105L344.031 192.189C347.088 192.451 349.36 195.136 349.096 198.205Z" fill="#92E3A9" stroke="#263238" stroke-miterlimit="10" stroke-linecap="round" stroke-linejoin="round"/>
<path opacity="0.3" d="M341.718 200.721L251.874 192.996C250.61 192.887 249.674 191.775 249.783 190.511C249.892 189.248 251.004 188.312 252.268 188.42L342.112 196.145C343.376 196.254 344.312 197.366 344.203 198.63C344.094 199.893 342.982 200.83 341.718 200.721Z" fill="white" fill-opacity="0.7"/>
<path d="M412.17 396.696C412.17 396.696 405.401 391.861 391.378 392.828C391.378 392.828 390.363 409.634 388.454 414.526C386.543 419.418 376.495 427.879 374.629 429.329C372.763 430.78 372.763 435.857 372.763 435.857H415.312C415.312 435.857 414.587 424.609 411.928 414.278L412.17 396.696Z" fill="white"/>
<mask id="mask13_838_2119" style="mask-type:luminance" maskUnits="userSpaceOnUse" x="372" y="392" width="44" height="44">
<path d="M412.17 396.696C412.17 396.696 405.401 391.861 391.378 392.828C391.378 392.828 390.363 409.634 388.454 414.526C386.543 419.418 376.495 427.879 374.629 429.329C372.763 430.78 372.763 435.857 372.763 435.857H415.312C415.312 435.857 414.587 424.609 411.928 414.278L412.17 396.696Z" fill="white"/>
</mask>
<g mask="url(#mask13_838_2119)">
<path opacity="0.4" d="M412.17 396.696C412.17 396.696 405.401 391.861 391.378 392.828C391.378 392.828 390.363 409.634 388.454 414.526C386.543 419.418 376.495 427.879 374.629 429.329C372.763 430.78 372.763 435.857 372.763 435.857H415.312C415.312 435.857 414.587 424.609 411.928 414.278L412.17 396.696Z" fill="#92E3A9"/>
</g>
<path d="M412.17 396.696C412.17 396.696 405.401 391.861 391.378 392.828C391.378 392.828 390.363 409.634 388.454 414.526C386.543 419.418 376.495 427.879 374.629 429.329C372.763 430.78 372.763 435.857 372.763 435.857H415.312C415.312 435.857 414.587 424.609 411.928 414.278L412.17 396.696Z" stroke="#263238" stroke-miterlimit="10" stroke-linecap="round" stroke-linejoin="round"/>
<path d="M403.386 398.871C403.386 398.871 402.38 414.342 399.982 418.371C397.584 422.4 395.265 424.495 395.265 424.495" stroke="#263238" stroke-miterlimit="10" stroke-linecap="round" stroke-linejoin="round"/>
<path d="M394.038 426.67C394.038 426.67 391.903 429.329 389.526 429.692C387.148 430.055 374.629 429.329 374.629 429.329L379.734 424.917C379.734 424.917 390.17 423.165 394.038 426.67Z" fill="#92E3A9" stroke="#263238" stroke-miterlimit="10" stroke-linecap="round" stroke-linejoin="round"/>
<path d="M398.51 423.044C398.51 423.044 389.437 417.831 382.974 421.767" stroke="#263238" stroke-miterlimit="10" stroke-linecap="round" stroke-linejoin="round"/>
<path d="M400.699 419.505C400.699 419.505 394.365 414.556 386.895 417.272" stroke="#263238" stroke-miterlimit="10" stroke-linecap="round" stroke-linejoin="round"/>
<path d="M403.386 414.113C403.386 414.113 396.57 408.818 389.381 412.191" stroke="#263238" stroke-miterlimit="10" stroke-linecap="round" stroke-linejoin="round"/>
<path d="M404.313 407.381C404.313 407.381 396.046 402.935 390.025 406.307" stroke="#263238" stroke-miterlimit="10" stroke-linecap="round" stroke-linejoin="round"/>
<path d="M415.313 435.857V438.999H410.439C410.439 438.999 406.248 436.581 402.259 438.999C402.259 438.999 383.281 438.999 379.292 438.999C375.303 438.999 372.281 437.427 372.281 437.427L372.765 435.855H415.313V435.857Z" fill="#92E3A9" stroke="#263238" stroke-miterlimit="10" stroke-linecap="round" stroke-linejoin="round"/>
<path d="M409.217 395.731L408.128 402.578C408.128 402.578 395.357 398.437 388.303 401.127V392.7C388.303 392.7 401.441 388.078 409.217 395.731Z" fill="#92E3A9" stroke="#263238" stroke-miterlimit="10" stroke-linecap="round" stroke-linejoin="round"/>
<path d="M423.028 224.89C423.028 224.89 395.882 230.206 369.262 221.578C363.383 219.672 357.517 217.081 351.98 213.598C351.98 213.598 352.054 211.887 352.102 209.089C352.322 198.163 352.261 170.678 346.505 163.822C342.887 159.533 339.966 133.013 347.042 119.607L368.688 102.204C398.657 108.058 404.988 115.989 409.938 133.099C410.855 136.227 411.71 139.661 412.663 143.45C413.702 147.58 414.68 152.628 415.609 158.176C420.107 185.527 423.028 224.89 423.028 224.89Z" fill="#999999"/>
<mask id="mask14_838_2119" style="mask-type:luminance" maskUnits="userSpaceOnUse" x="342" y="102" width="82" height="125">
<path d="M423.028 224.89C423.028 224.89 395.882 230.206 369.262 221.578C363.383 219.672 357.517 217.081 351.98 213.598C351.98 213.598 352.054 211.887 352.102 209.089C352.322 198.163 352.261 170.678 346.505 163.822C342.887 159.533 339.966 133.013 347.042 119.607L368.688 102.204C398.657 108.058 404.988 115.989 409.938 133.099C410.855 136.227 411.71 139.661 412.663 143.45C413.702 147.58 414.68 152.628 415.609 158.176C420.107 185.527 423.028 224.89 423.028 224.89Z" fill="white"/>
</mask>
<g mask="url(#mask14_838_2119)">
<path opacity="0.2" d="M415.609 158.176L403.387 212.767C403.387 212.767 385.726 217.704 369.262 221.578C363.384 219.672 357.517 217.081 351.98 213.598C351.98 213.598 352.054 211.887 352.102 209.088C366.891 201.524 388.476 190.403 388.305 189.877C388.023 189.058 388.305 160.535 388.305 160.535C388.305 160.535 407.799 156.001 409.938 133.099C410.855 136.227 411.71 139.661 412.663 143.45C413.702 147.58 414.68 152.628 415.609 158.176Z" fill="black"/>
</g>
<path d="M423.028 224.89C423.028 224.89 395.882 230.206 369.262 221.578C363.383 219.672 357.517 217.081 351.98 213.598C351.98 213.598 352.054 211.887 352.102 209.089C352.322 198.163 352.261 170.678 346.505 163.822C342.887 159.533 339.966 133.013 347.042 119.607L368.688 102.204C398.657 108.058 404.988 115.989 409.938 133.099C410.855 136.227 411.71 139.661 412.663 143.45C413.702 147.58 414.68 152.628 415.609 158.176C420.107 185.527 423.028 224.89 423.028 224.89Z" stroke="#263238" stroke-miterlimit="10" stroke-linecap="round" stroke-linejoin="round"/>
<path d="M369.655 79.4255C369.655 79.4255 360.098 93.1154 372.809 103.788C372.809 103.788 357.381 121.103 352.308 118.716C350.171 117.711 352.308 111.464 352.308 111.464L343.365 94.9241L369.655 79.4255Z" fill="white" stroke="#263238" stroke-miterlimit="10" stroke-linecap="round" stroke-linejoin="round"/>
<path d="M366.52 86.4501C369.512 73.4079 368.073 53.9876 349.804 55.7205C337.001 56.9353 327.862 64.021 331.422 81.2036C332.926 88.4604 334.161 98.7248 340.807 107.98C342.652 110.55 361.961 101.47 360.797 94.1261" fill="white"/>
<path d="M366.52 86.4501C369.512 73.4079 368.073 53.9876 349.804 55.7205C337.001 56.9353 327.862 64.021 331.422 81.2036C332.926 88.4604 334.161 98.7248 340.807 107.98C342.652 110.55 361.961 101.47 360.797 94.1261" stroke="#263238" stroke-miterlimit="10" stroke-linecap="round" stroke-linejoin="round"/>
<path d="M340.378 78.361C340.378 78.361 344.217 76.6037 348.306 79.1285" stroke="#263238" stroke-miterlimit="10" stroke-linecap="round" stroke-linejoin="round"/>
<path d="M331.189 79.9682C331.189 79.9682 331.8 78.3086 333.938 78.7094" stroke="#263238" stroke-miterlimit="10" stroke-linecap="round" stroke-linejoin="round"/>
<path d="M335.756 82.6775C335.756 82.6775 331.996 89.5322 331.986 90.5136C331.975 91.4961 336.617 91.8139 336.617 91.8139" fill="white"/>
<path d="M335.756 82.6775C335.756 82.6775 331.996 89.5322 331.986 90.5136C331.975 91.4961 336.617 91.8139 336.617 91.8139" stroke="#263238" stroke-miterlimit="10" stroke-linecap="round" stroke-linejoin="round"/>
<path d="M343.852 84.0928C343.875 84.8383 343.52 85.4554 343.058 85.4689C342.596 85.4835 342.202 84.8908 342.179 84.1441C342.156 83.3986 342.511 82.7815 342.973 82.7668C343.435 82.7534 343.829 83.3461 343.852 84.0928Z" fill="#263238"/>
<path d="M338.53 96.8038C338.53 96.8038 345.76 95.4472 347.04 92.9065" stroke="#263238" stroke-miterlimit="10" stroke-linecap="round" stroke-linejoin="round"/>
<path d="M331.141 69.4349L336.761 67.7985C336.761 67.7985 344.641 64.1897 346.315 64.6455C347.99 65.1001 351.389 70.3869 351.287 73.3664C351.287 73.3664 356.584 78.0275 357.254 84.8089L358.877 84.0658C358.877 84.0658 358.787 77.9981 362.263 78.1167C365.739 78.2352 367.298 82.4343 367.059 83.7407C366.82 85.0472 363.034 90.472 363.034 90.472C363.034 90.472 371.729 89.1778 372.011 72.1871C372.293 55.1951 353.618 52.262 344.536 52.999C335.453 53.7371 330.705 53.5086 330.705 53.5086L331.218 58.3652L327.506 59.3318L330.278 62.7158L327.249 64.1041L331.141 69.4349Z" fill="#263238"/>
<path d="M362.623 255.171C362.623 255.171 384.753 261.029 390.742 277.5" stroke="white" stroke-miterlimit="10" stroke-linecap="round" stroke-linejoin="round"/>
<path d="M372.764 264.027C372.764 264.027 360.8 283.935 342.502 294.272" stroke="white" stroke-miterlimit="10" stroke-linecap="round" stroke-linejoin="round"/>
<path d="M355.955 375.975C355.955 375.975 362.747 374.451 364.6 371.812" stroke="white" stroke-miterlimit="10" stroke-linecap="round" stroke-linejoin="round"/>
<path d="M393.796 378.511C393.796 378.511 400.444 375.061 407.062 378.511" stroke="white" stroke-miterlimit="10" stroke-linecap="round" stroke-linejoin="round"/>
<path d="M415.313 285.825C415.313 285.825 404.158 314.724 398.511 317.403" stroke="white" stroke-miterlimit="10" stroke-linecap="round" stroke-linejoin="round"/>
<path d="M366.452 240.556C366.753 243.694 379.919 258.254 390.743 264.027" stroke="white" stroke-miterlimit="10" stroke-linecap="round" stroke-linejoin="round"/>
<path d="M377.664 228.279C377.664 228.279 380.287 234.035 378.596 240.556C376.906 247.077 378.596 251.386 378.596 251.386" stroke="white" stroke-miterlimit="10" stroke-linecap="round" stroke-linejoin="round"/>
<path d="M353.704 168.168C353.704 168.168 374.278 194.793 396.384 203.531" stroke="#263238" stroke-miterlimit="10" stroke-linecap="round" stroke-linejoin="round"/>
<path d="M375.043 125.144C375.043 125.144 374.973 143.244 388.028 151.407" stroke="#263238" stroke-miterlimit="10" stroke-linecap="round" stroke-linejoin="round"/>
<path d="M382.384 151.549C379.626 154.272 382.638 188.309 382.638 188.309C382.638 188.309 366.582 194.597 361.565 198.645C356.548 202.692 332.738 211.975 332.738 211.975C332.738 211.975 329.076 224.469 333.652 224.895C338.228 225.322 385.561 209.19 396.385 203.531C396.385 203.531 403.433 161.938 403.387 151.407" fill="white"/>
<path d="M382.384 151.549C379.626 154.272 382.638 188.309 382.638 188.309C382.638 188.309 366.582 194.597 361.565 198.645C356.548 202.692 332.738 211.975 332.738 211.975C332.738 211.975 329.076 224.469 333.652 224.895C338.228 225.322 385.561 209.19 396.385 203.531C396.385 203.531 403.433 161.938 403.387 151.407" stroke="#263238" stroke-miterlimit="10" stroke-linecap="round" stroke-linejoin="round"/>
<path d="M334.62 211.23C332.424 210.817 328.556 209.366 326.46 209.85C324.364 210.334 320.658 212.59 316.79 213.557C312.922 214.523 314.534 215.974 316.79 216.458C319.046 216.942 321.787 216.458 321.787 216.458L318.653 219.519C318.653 219.519 313.692 222.098 313.083 222.098C311.955 222.098 307.925 223.195 308.248 224.903C308.571 226.61 310.827 226.414 313.406 226.512C313.406 226.512 309.295 227.335 309.699 229.672C309.974 231.269 314.534 229.834 316.951 229.834C316.951 229.834 315.018 231.928 316.467 232.574C317.918 233.218 321.103 231.607 321.103 231.607C321.103 231.607 320.98 233.346 322.431 233.525C323.881 233.703 327.5 232.252 329.962 230.802C332.424 229.351 334.615 227.468 336.936 225.644C339.257 223.821 340.098 223.597 340.098 223.597" fill="white"/>
<path d="M334.62 211.23C332.424 210.817 328.556 209.366 326.46 209.85C324.364 210.334 320.658 212.59 316.79 213.557C312.922 214.523 314.534 215.974 316.79 216.458C319.046 216.942 321.787 216.458 321.787 216.458L318.653 219.519C318.653 219.519 313.692 222.098 313.083 222.098C311.955 222.098 307.925 223.195 308.248 224.903C308.571 226.61 310.827 226.414 313.406 226.512C313.406 226.512 309.295 227.335 309.699 229.672C309.974 231.269 314.534 229.834 316.951 229.834C316.951 229.834 315.018 231.928 316.467 232.574C317.918 233.218 321.103 231.607 321.103 231.607C321.103 231.607 320.98 233.346 322.431 233.525C323.881 233.703 327.5 232.252 329.962 230.802C332.424 229.351 334.615 227.468 336.936 225.644C339.257 223.821 340.098 223.597 340.098 223.597" stroke="#263238" stroke-miterlimit="10" stroke-linecap="round" stroke-linejoin="round"/>
<path d="M313.406 226.512C313.406 226.512 315.823 226.368 316.79 226.126C317.757 225.884 318.725 225.561 318.725 225.561" stroke="#263238" stroke-miterlimit="10" stroke-linecap="round" stroke-linejoin="round"/>
<path d="M316.951 229.834C316.951 229.834 319.692 229.43 321.142 228.383" stroke="#263238" stroke-miterlimit="10" stroke-linecap="round" stroke-linejoin="round"/>
<path d="M321.103 231.606C321.103 231.606 323.076 231.364 324.164 230.478" stroke="#263238" stroke-miterlimit="10" stroke-linecap="round" stroke-linejoin="round"/>
<path d="M319.046 220.405C319.046 220.405 318.16 222.419 319.046 223.548C319.933 224.676 320.98 224.74 321.141 226.038C321.303 227.336 323.397 227.255 324.164 228.06C324.929 228.866 325.499 230.375 327.911 230.478" stroke="#263238" stroke-miterlimit="10" stroke-linecap="round" stroke-linejoin="round"/>
<path d="M381.365 116.245C373.039 135.074 381.365 161.207 381.365 161.207C381.365 161.207 401.498 168.056 403.387 165.102C405.274 162.148 408.647 147.717 409.217 141.042" fill="#999999"/>
<path d="M381.365 116.245C373.039 135.074 381.365 161.207 381.365 161.207C381.365 161.207 401.498 168.056 403.387 165.102C405.274 162.148 408.647 147.717 409.217 141.042" stroke="#263238" stroke-miterlimit="10" stroke-linecap="round" stroke-linejoin="round"/>
<path d="M403.387 143.132C403.387 143.132 394.798 154.896 388.028 155.057" stroke="#263238" stroke-miterlimit="10" stroke-linecap="round" stroke-linejoin="round"/>
<path d="M103.226 301.004C103.226 301.004 109.74 296.814 118.682 299.07C127.624 301.326 150.832 334.524 154.055 337.747C157.278 340.97 163.322 342.69 168.883 348.493C177.683 357.675 190.48 365.788 191.77 365.788C193.059 365.788 194.106 364.983 195.719 364.66C197.331 364.337 209.822 363.209 209.822 363.209C209.822 363.209 214.013 364.141 209.822 365.931C205.631 367.721 205.953 369.333 205.953 369.333C205.953 369.333 205.111 370.69 206.795 371.979C208.478 373.268 209.473 372.568 211.877 375.98C214.282 379.392 208.48 377.458 208.48 377.458C208.48 377.458 209.769 381.145 207.19 380.751C204.611 380.358 206.868 384.335 202.678 383.797C198.488 383.259 189.516 377.604 187.26 371.669C187.26 371.669 150.674 354.183 145.194 349.671C139.714 345.159 116.695 320.985 115.069 320.663" fill="#263238"/>
<path d="M228.066 355.245H196.638V336.057C196.638 334.787 197.667 333.757 198.938 333.757H225.767C227.037 333.757 228.067 334.786 228.067 336.057V355.245H228.066Z" fill="#92E3A9"/>
<mask id="mask15_838_2119" style="mask-type:luminance" maskUnits="userSpaceOnUse" x="196" y="333" width="33" height="23">
<path d="M228.066 355.245H196.638V336.057C196.638 334.787 197.667 333.757 198.938 333.757H225.767C227.037 333.757 228.067 334.786 228.067 336.057V355.245H228.066Z" fill="white"/>
</mask>
<g mask="url(#mask15_838_2119)">
<path opacity="0.3" d="M228.066 355.245H196.638V336.057C196.638 334.787 197.667 333.757 198.938 333.757H225.767C227.037 333.757 228.067 334.786 228.067 336.057V355.245H228.066Z" fill="black" fill-opacity="0.7"/>
</g>
<mask id="mask16_838_2119" style="mask-type:luminance" maskUnits="userSpaceOnUse" x="196" y="333" width="33" height="23">
<path d="M228.066 355.245H196.638V336.057C196.638 334.787 197.667 333.757 198.938 333.757H225.767C227.037 333.757 228.067 334.786 228.067 336.057V355.245H228.066Z" fill="white"/>
</mask>
<g mask="url(#mask16_838_2119)">
<path opacity="0.3" d="M226.374 335.778H218.638V351.249H226.374V335.778Z" fill="white" fill-opacity="0.7"/>
</g>
<path d="M228.066 355.245H196.638V336.057C196.638 334.787 197.667 333.757 198.938 333.757H225.767C227.037 333.757 228.067 334.786 228.067 336.057V355.245H228.066Z" stroke="#263238" stroke-miterlimit="10" stroke-linecap="round" stroke-linejoin="round"/>
<path d="M274.51 355.245H243.082V336.057C243.082 334.787 244.111 333.757 245.382 333.757H272.211C273.481 333.757 274.511 334.786 274.511 336.057V355.245H274.51Z" fill="#92E3A9"/>
<mask id="mask17_838_2119" style="mask-type:luminance" maskUnits="userSpaceOnUse" x="243" y="333" width="32" height="23">
<path d="M274.51 355.245H243.082V336.057C243.082 334.787 244.111 333.757 245.382 333.757H272.211C273.481 333.757 274.511 334.786 274.511 336.057V355.245H274.51Z" fill="white"/>
</mask>
<g mask="url(#mask17_838_2119)">
<path opacity="0.3" d="M274.51 355.245H243.082V336.057C243.082 334.787 244.111 333.757 245.382 333.757H272.211C273.481 333.757 274.511 334.786 274.511 336.057L274.51 355.245Z" fill="black" fill-opacity="0.7"/>
</g>
<mask id="mask18_838_2119" style="mask-type:luminance" maskUnits="userSpaceOnUse" x="243" y="333" width="32" height="23">
<path d="M274.51 355.245H243.082V336.057C243.082 334.787 244.111 333.757 245.382 333.757H272.211C273.481 333.757 274.511 334.786 274.511 336.057V355.245H274.51Z" fill="white"/>
</mask>
<g mask="url(#mask18_838_2119)">
<path opacity="0.3" d="M272.307 335.778H267.633V351.249H272.307V335.778Z" fill="white" fill-opacity="0.7"/>
</g>
<path d="M274.51 355.245H243.082V336.057C243.082 334.787 244.111 333.757 245.382 333.757H272.211C273.481 333.757 274.511 334.786 274.511 336.057V355.245H274.51Z" stroke="#263238" stroke-miterlimit="10" stroke-linecap="round" stroke-linejoin="round"/>
<path d="M264.733 355.245H233.304V336.057C233.304 334.787 234.334 333.757 235.605 333.757H262.434C263.703 333.757 264.734 334.786 264.734 336.057L264.733 355.245Z" fill="#92E3A9" stroke="#263238" stroke-miterlimit="10" stroke-linecap="round" stroke-linejoin="round"/>
<path d="M311.177 355.245H279.749V336.057C279.749 334.787 280.778 333.757 282.049 333.757H308.878C310.148 333.757 311.178 334.786 311.178 336.057L311.177 355.245Z" fill="#92E3A9" stroke="#263238" stroke-miterlimit="10" stroke-linecap="round" stroke-linejoin="round"/>
<path opacity="0.3" d="M263.041 335.778H255.304V351.249H263.041V335.778Z" fill="white" fill-opacity="0.7"/>
<path opacity="0.3" d="M308.974 335.778H301.238V351.249H308.974V335.778Z" fill="white" fill-opacity="0.7"/>
<path d="M324.933 350.77V438.993H182.777V350.77C182.777 347.69 185.27 345.209 188.338 345.209H319.372C322.44 345.209 324.933 347.69 324.933 350.77Z" fill="#92E3A9"/>
<mask id="mask19_838_2119" style="mask-type:luminance" maskUnits="userSpaceOnUse" x="182" y="345" width="143" height="94">
<path d="M324.933 350.77V438.993H182.777V350.77C182.777 347.69 185.27 345.209 188.338 345.209H319.372C322.44 345.209 324.933 347.69 324.933 350.77Z" fill="white"/>
</mask>
<g mask="url(#mask19_838_2119)">
<path opacity="0.3" d="M324.933 350.77V438.993H182.777V350.77C182.777 347.69 185.27 345.209 188.338 345.209H319.372C322.44 345.209 324.933 347.69 324.933 350.77Z" fill="black" fill-opacity="0.7"/>
</g>
<path d="M324.933 350.77V438.993H182.777V350.77C182.777 347.69 185.27 345.209 188.338 345.209H319.372C322.44 345.209 324.933 347.69 324.933 350.77Z" stroke="#263238" stroke-miterlimit="10" stroke-linecap="round" stroke-linejoin="round"/>
<path d="M324.933 350.77V438.993H219.443V350.77C219.443 347.69 221.936 345.209 225.004 345.209H319.372C322.44 345.209 324.933 347.69 324.933 350.77Z" fill="#92E3A9" stroke="#263238" stroke-miterlimit="10" stroke-linecap="round" stroke-linejoin="round"/>
<path opacity="0.3" d="M317.798 353.909H227.622C226.354 353.909 225.326 352.881 225.326 351.613C225.326 350.344 226.354 349.317 227.622 349.317H317.798C319.066 349.317 320.094 350.344 320.094 351.613C320.094 352.88 319.066 353.909 317.798 353.909Z" fill="white" fill-opacity="0.7"/>
<path d="M150.84 438.993C143.494 438.993 133.203 434.275 121.336 429.289C109.028 424.107 95.009 418.632 80.7823 417.814C75.4779 417.508 78.6923 438.993 78.6923 438.993H67.0812C67.0812 438.993 55.6413 423.692 54.3457 409.992C54.3457 409.992 63.7079 404.212 65.9568 403.87C66.4212 403.796 67.289 403.772 68.2912 403.76C70.809 403.735 74.1701 403.87 74.1701 403.87C74.1701 403.87 74.1579 403.87 74.1457 403.857C73.6079 403.54 65.0401 398.382 60.3101 393.14C56.4113 388.813 54.6207 381.976 54.4924 377.9C54.4288 375.873 55.3895 369.835 55.3895 369.835L116.398 370.849C116.398 370.849 117.058 371.313 118.231 372.181C125.308 377.338 151.17 396.549 164.101 411.031C168.281 415.712 171.104 419.891 171.52 422.946C173.451 437.062 161.925 438.993 150.84 438.993Z" fill="#757575" stroke="#263238" stroke-miterlimit="10" stroke-linecap="round" stroke-linejoin="round"/>
<path d="M164.101 411.031L134.426 417.814C134.426 417.814 126.689 421.944 121.336 429.289C109.028 424.107 95.009 418.632 80.7823 417.814C75.4779 417.508 78.6923 438.993 78.6923 438.993H67.0812C67.0812 438.993 55.6413 423.692 54.3457 409.992C54.3457 409.992 65.1501 425.391 67.729 433.163C67.729 433.163 71.9212 418.694 78.6923 412.889C78.6923 412.889 74.1334 407.572 68.2912 403.76C70.809 403.735 74.1701 403.87 74.1701 403.87C74.1701 403.87 74.1579 403.87 74.1457 403.857C73.6079 403.54 65.0401 398.382 60.3101 393.14C56.4113 388.813 54.8297 381.964 54.4924 377.9C54.3262 375.891 54.562 369.835 54.562 369.835C54.562 369.835 100.069 376.324 118.231 372.181C125.308 377.338 151.17 396.549 164.101 411.031Z" fill="#263238"/>
<path d="M116.4 409.991C116.4 409.991 140.576 422.103 147.023 426.845C153.47 431.587 155.396 430.297 155.396 430.297" stroke="#263238" stroke-miterlimit="10" stroke-linecap="round" stroke-linejoin="round"/>
<path d="M60.3125 408.702C60.3125 408.702 66.1144 417.564 66.437 420.224" stroke="#263238" stroke-miterlimit="10" stroke-linecap="round" stroke-linejoin="round"/>
<path d="M157.545 238.64C157.545 238.64 170.447 233.035 169.238 256.85C168.029 280.664 172.38 281.873 172.38 281.873C172.38 281.873 139.984 295.168 131.765 283.806C123.545 272.444 131.347 241.337 157.545 238.64Z" fill="#263238"/>
<path d="M155.725 281.873C155.725 281.873 142.403 288.158 141.194 293.959C139.985 299.761 123.304 291.036 123.304 291.036L135.392 273.652L155.725 281.873Z" fill="white" stroke="#263238" stroke-miterlimit="10" stroke-linecap="round" stroke-linejoin="round"/>
<path d="M68.4024 345.623C37.8017 384.527 62.6458 403.305 97.2859 400.202L90.3437 411.159L107.763 414.182C107.763 414.182 121.131 405.458 139.339 396.132C170.337 380.255 182.855 381.197 179.632 365.298C176.409 349.398 138.454 339.084 100.377 355.844C100.377 355.844 79.6884 331.275 68.4024 345.623Z" fill="#757575" stroke="#263238" stroke-miterlimit="10" stroke-linecap="round" stroke-linejoin="round"/>
<path d="M79.0625 430.296C79.0625 430.296 87.0131 408.279 90.3448 407.09C93.6766 405.901 106.166 410.635 107.764 414.18C107.764 414.18 112.01 407.674 113.749 410.444C115.487 413.214 112.978 417.727 113.749 421.272C114.52 424.818 123.104 429.652 126.548 430.297C129.992 430.941 131.927 432.876 131.927 434.809C131.927 436.743 131.927 439 131.927 439H79.0625C79.0625 439 77.1278 435.409 79.0625 430.296Z" fill="white" stroke="#263238" stroke-miterlimit="10" stroke-linecap="round" stroke-linejoin="round"/>
<path d="M113.749 417.815C113.749 417.815 106.742 421.271 104.184 420.304C101.626 419.338 105.494 426.106 106.461 426.751C107.428 427.395 113.748 424.495 113.748 424.495" stroke="#263238" stroke-miterlimit="10" stroke-linecap="round" stroke-linejoin="round"/>
<path d="M85.6772 414.18C85.6772 414.18 95.18 414.359 98.0803 417.815" stroke="#263238" stroke-miterlimit="10" stroke-linecap="round" stroke-linejoin="round"/>
<path d="M79.0625 430.296C79.0625 430.296 94.2131 433.841 95.5026 433.841C96.792 433.841 101.627 432.068 101.627 432.068C101.627 432.068 105.777 434.163 108.538 435.452C111.299 436.741 129.35 435.452 129.35 435.452" stroke="#263238" stroke-miterlimit="10" stroke-linecap="round" stroke-linejoin="round"/>
<path d="M97.2871 400.202C111.768 398.629 139.859 380.801 149.593 374.608C159.327 368.413 161.906 370.025 161.906 370.025" stroke="#263238" stroke-miterlimit="10" stroke-linecap="round" stroke-linejoin="round"/>
<path d="M54.562 369.835L56.8757 352.297L62.4514 348.09C71.4775 326.172 112.399 285.253 123.545 285.383C140.307 285.578 143.263 303.16 145.331 322.411C147.399 341.66 121.289 338.76 121.289 338.76V343.595L106.442 351.282L115.433 350.998C115.433 350.998 89.5652 376.137 54.562 369.835Z" fill="#92E3A9" stroke="#263238" stroke-miterlimit="10" stroke-linecap="round" stroke-linejoin="round"/>
<path d="M127.092 251.429C130.595 240.441 146.662 237.499 152.412 239.304C156.027 240.439 161.06 244.422 163.303 249.239C164.772 252.395 161.704 257.996 163.89 261.261C167.02 265.939 166.754 275.811 165.625 281.985C165.02 285.29 151.292 287.248 140.069 279.564C128.019 271.313 123.696 262.083 127.092 251.429Z" fill="white" stroke="#263238" stroke-miterlimit="10" stroke-linecap="round" stroke-linejoin="round"/>
<path d="M143.305 236.079C143.305 236.079 157.439 233.772 157.533 237.407C158.162 261.515 143.706 266.577 143.706 266.577C143.706 266.577 137.803 261.878 136.475 265.102C135.148 268.327 138.562 277.242 142.735 277.432C142.735 277.432 139.514 281.631 142.563 287.503C142.563 287.503 118.637 291.494 116.655 280.409C116.655 280.409 117.992 275.153 118.636 268.706C120.192 253.173 116.556 242.718 143.305 236.079Z" fill="#263238"/>
<path d="M162.182 260.644C165.129 263.306 167.245 263.306 167.209 264.248C167.099 267.224 163.509 268.706 163.509 268.706" fill="white"/>
<path d="M162.182 260.644C165.129 263.306 167.245 263.306 167.209 264.248C167.099 267.224 163.509 268.706 163.509 268.706" stroke="#263238" stroke-miterlimit="10" stroke-linecap="round" stroke-linejoin="round"/>
<path d="M163.464 273.652C163.464 273.652 160.492 274.824 157.027 273.813" stroke="#263238" stroke-miterlimit="10" stroke-linecap="round" stroke-linejoin="round"/>
<path d="M155.637 245.848C155.637 245.848 165.028 243.121 163.303 258.374C163.303 258.374 167.224 253.066 167.211 247.081C167.186 236.738 153.362 238.81 153.362 238.81L155.164 246.133" fill="#263238"/>
<path d="M164.174 253.317C164.174 253.317 163.393 252.617 161.685 252.866" stroke="#263238" stroke-miterlimit="10" stroke-linecap="round" stroke-linejoin="round"/>
<path d="M157.842 253.151C157.842 253.151 152.791 253.436 150.609 256.85" stroke="#263238" stroke-miterlimit="10" stroke-linecap="round" stroke-linejoin="round"/>
<path d="M156.632 261.174C156.709 261.982 156.364 262.676 155.863 262.724C155.362 262.771 154.894 262.154 154.818 261.345C154.741 260.537 155.086 259.843 155.587 259.796C156.088 259.749 156.555 260.366 156.632 261.174Z" fill="#263238"/>
<path d="M98.0803 403.867C98.0803 403.867 109.324 405.055 111.767 409.991" stroke="#263238" stroke-miterlimit="10" stroke-linecap="round" stroke-linejoin="round"/>
<path d="M126.548 293.637C126.548 293.637 133.063 289.447 142.005 291.703C150.946 293.959 174.155 327.157 177.378 330.38C180.601 333.603 186.645 335.323 192.206 341.126C201.006 350.308 213.803 358.421 215.092 358.421C216.381 358.421 217.429 357.616 219.041 357.293C220.653 356.97 233.143 355.842 233.143 355.842C233.143 355.842 237.334 356.774 233.143 358.564C228.952 360.354 229.275 361.966 229.275 361.966C229.275 361.966 228.433 363.323 230.117 364.612C231.8 365.901 232.795 365.201 235.199 368.613C237.603 372.025 231.801 370.091 231.801 370.091C231.801 370.091 233.09 373.778 230.512 373.384C227.933 372.991 230.189 376.968 225.999 376.43C221.809 375.892 212.837 370.237 210.581 364.302C210.581 364.302 173.995 346.816 168.514 342.304C163.034 337.792 140.015 313.618 138.389 313.296" fill="white"/>
<path d="M126.548 293.637C126.548 293.637 133.063 289.447 142.005 291.703C150.946 293.959 174.155 327.157 177.378 330.38C180.601 333.603 186.645 335.323 192.206 341.126C201.006 350.308 213.803 358.421 215.092 358.421C216.381 358.421 217.429 357.616 219.041 357.293C220.653 356.97 233.143 355.842 233.143 355.842C233.143 355.842 237.334 356.774 233.143 358.564C228.952 360.354 229.275 361.966 229.275 361.966C229.275 361.966 228.433 363.323 230.117 364.612C231.8 365.901 232.795 365.201 235.199 368.613C237.603 372.025 231.801 370.091 231.801 370.091C231.801 370.091 233.09 373.778 230.512 373.384C227.933 372.991 230.189 376.968 225.999 376.43C221.809 375.892 212.837 370.237 210.581 364.302C210.581 364.302 173.995 346.816 168.514 342.304C163.034 337.792 140.015 313.618 138.389 313.296" stroke="#263238" stroke-miterlimit="10" stroke-linecap="round" stroke-linejoin="round"/>
<path d="M121.289 290.091C121.289 290.091 139.328 285.257 145.62 288.802C151.912 292.347 163.838 308.786 163.838 308.786C163.838 308.786 149.301 321.805 144.803 320.613C140.307 319.422 126.547 317.488 126.547 317.488" fill="#92E3A9"/>
<path d="M121.289 290.091C121.289 290.091 139.328 285.257 145.62 288.802C151.912 292.347 163.838 308.786 163.838 308.786C163.838 308.786 149.301 321.805 144.803 320.613C140.307 319.422 126.547 317.488 126.547 317.488" stroke="#263238" stroke-miterlimit="10" stroke-linecap="round" stroke-linejoin="round"/>
<path d="M136.927 319.08C136.927 319.08 130.391 322.675 127.979 322.675" stroke="#263238" stroke-miterlimit="10" stroke-linecap="round" stroke-linejoin="round"/>
<path d="M126.548 301.05C127.092 302.017 126.908 312.59 138.388 315.876" stroke="#263238" stroke-miterlimit="10" stroke-linecap="round" stroke-linejoin="round"/>
<path d="M65.2014 348.429C65.2014 348.429 89.6996 352.62 98.0803 345.207" stroke="#263238" stroke-miterlimit="10" stroke-linecap="round" stroke-linejoin="round"/>
<path d="M106.443 351.282C106.443 351.282 100.338 350.204 98.0817 353.346C95.8255 356.488 83.5764 359.389 83.5764 359.389" stroke="#263238" stroke-miterlimit="10" stroke-linecap="round" stroke-linejoin="round"/>
<path d="M57.3047 374.608C57.3047 374.608 53.7774 389.832 68.8376 396.648" stroke="#263238" stroke-miterlimit="10" stroke-linecap="round" stroke-linejoin="round"/>
<path d="M65.2014 375.665C65.2014 375.665 65.2821 383.159 67.6996 387.269L75.1943 389.686L83.575 385.02C83.575 385.02 81.8016 375.424 81.6403 373.491" stroke="#263238" stroke-miterlimit="10" stroke-linecap="round" stroke-linejoin="round"/>
</svg>
