
<svg width="32" height="32" viewBox="0 0 32 32" fill="none" xmlns="http://www.w3.org/2000/svg">
<path d="M9.26762 1.33639C6.61918 1.98181 4.08202 4.11837 3.10276 6.54425C2.59088 7.79058 2.59088 7.94637 2.59088 16.0475C2.59088 24.2376 2.59088 24.2821 3.12502 25.6175C3.85946 27.4647 6.08504 29.6903 7.93227 30.4247L9.26762 30.9589H18.6818H28.1183L28.7637 30.2244C29.3646 29.5567 29.4091 29.3564 29.4091 27.8431C29.4091 25.8178 29.1866 25.1946 28.2518 24.616C27.5619 24.1931 27.1168 24.1708 19.9504 24.1708C11.649 24.1708 11.738 24.1931 11.0481 22.8355C10.5807 21.923 10.5585 10.5058 11.0258 9.37074C11.6267 7.94637 11.827 7.92411 20.3065 7.92411H27.8957L28.6524 7.16741C29.3869 6.43297 29.4091 6.34395 29.4091 4.74153C29.4091 2.67174 29.1866 2.04858 28.2518 1.46993C27.5396 1.04707 27.139 1.02481 18.9489 1.04707C13.0289 1.04707 10.0243 1.13609 9.26762 1.33639Z" fill="#2C4BD2"/>
</svg>
