<svg width="32" height="33" viewBox="0 0 32 33" fill="none" xmlns="http://www.w3.org/2000/svg">
<g clip-path="url(#clip0_87_2)">
<path d="M5.43566 20.8815C8.08746 24.7399 12.8193 29.2592 16.0035 32.8159V26.4421C23.0803 26.4421 28.8166 20.7057 28.8166 13.629C28.8166 11.8035 28.4337 10.0644 27.7439 8.49329L17.614 18.6231C16.7249 19.5123 15.2822 19.5123 14.393 18.6231L10.0809 14.3084C9.19175 13.4218 9.19175 11.9766 10.0809 11.0874C10.9701 10.1982 12.4127 10.1982 13.3019 11.0874L16.0035 13.789L22.839 6.95624C23.4973 6.29788 23.7832 5.44804 23.6521 4.52214C23.5209 3.59886 23.0121 2.86182 22.1989 2.41067C20.3655 1.39559 18.2514 0.815918 16.0035 0.815918C8.92682 0.815918 3.19043 6.55231 3.19043 13.629C3.19043 16.2205 3.96681 18.7385 5.43566 20.8789" fill="#1D4ED8"/>
</g>
<defs>
<clipPath id="clip0_87_2">
<rect width="32" height="32" fill="white" transform="translate(0 0.815918)"/>
</clipPath>
</defs>
</svg>