<svg width="25" height="24" viewBox="0 0 25 24" fill="none" xmlns="http://www.w3.org/2000/svg">
<path fill-rule="evenodd" clip-rule="evenodd" d="M11.4341 2.93414C12.5125 1.8558 13.975 1.25 15.5 1.25H18.5C18.9142 1.25 19.25 1.58579 19.25 2V6C19.25 6.41421 18.9142 6.75 18.5 6.75H15.5C15.4337 6.75 15.3701 6.77634 15.3232 6.82322C15.2763 6.87011 15.25 6.9337 15.25 7V9.25H18.5C18.731 9.25 18.949 9.3564 19.0912 9.53844C19.2333 9.72048 19.2836 9.95785 19.2276 10.1819L18.2276 14.1819C18.1441 14.5158 17.8442 14.75 17.5 14.75H15.25V22C15.25 22.4142 14.9142 22.75 14.5 22.75H10.5C10.0858 22.75 9.75 22.4142 9.75 22V14.75H7.5C7.08579 14.75 6.75 14.4142 6.75 14V10C6.75 9.58579 7.08579 9.25 7.5 9.25H9.75V7C9.75 5.47501 10.3558 4.01247 11.4341 2.93414ZM15.5 2.75C14.3728 2.75 13.2918 3.19777 12.4948 3.9948C11.6978 4.79183 11.25 5.87283 11.25 7V10C11.25 10.4142 10.9142 10.75 10.5 10.75H8.25V13.25H10.5C10.9142 13.25 11.25 13.5858 11.25 14V21.25H13.75V14C13.75 13.5858 14.0858 13.25 14.5 13.25H16.9144L17.5394 10.75H14.5C14.0858 10.75 13.75 10.4142 13.75 10V7C13.75 6.53587 13.9344 6.09075 14.2626 5.76256C14.5908 5.43437 15.0359 5.25 15.5 5.25H17.75V2.75H15.5Z" fill="white"/>
</svg>
