<svg width="25" height="24" viewBox="0 0 25 24" fill="none" xmlns="http://www.w3.org/2000/svg">
<path fill-rule="evenodd" clip-rule="evenodd" d="M7.5 2.75C5.15279 2.75 3.25 4.65279 3.25 7V17C3.25 19.3472 5.15279 21.25 7.5 21.25H17.5C19.8472 21.25 21.75 19.3472 21.75 17V7C21.75 4.65279 19.8472 2.75 17.5 2.75H7.5ZM1.75 7C1.75 3.82436 4.32436 1.25 7.5 1.25H17.5C20.6756 1.25 23.25 3.82436 23.25 7V17C23.25 20.1756 20.6756 22.75 17.5 22.75H7.5C4.32436 22.75 1.75 20.1756 1.75 17V7ZM17.25 6.5C17.25 6.08579 17.5858 5.75 18 5.75H18.01C18.4242 5.75 18.76 6.08579 18.76 6.5C18.76 6.91421 18.4242 7.25 18.01 7.25H18C17.5858 7.25 17.25 6.91421 17.25 6.5ZM13.02 8.7419C12.3438 8.64163 11.6532 8.75713 11.0464 9.07197C10.4396 9.38682 9.94757 9.88497 9.64023 10.4956C9.33289 11.1062 9.22591 11.7982 9.33452 12.4731C9.44312 13.148 9.76177 13.7715 10.2451 14.2548C10.7285 14.7382 11.352 15.0569 12.0269 15.1655C12.7018 15.2741 13.3938 15.1671 14.0044 14.8598C14.615 14.5524 15.1132 14.0604 15.428 13.4536C15.7429 12.8468 15.8584 12.1562 15.7581 11.48C15.6558 10.7903 15.3344 10.1517 14.8413 9.65865C14.3483 9.16559 13.7097 8.84418 13.02 8.7419ZM10.3555 7.74054C11.2424 7.28038 12.2517 7.11158 13.24 7.25813C14.2481 7.40762 15.1814 7.87737 15.902 8.59799C16.6226 9.31862 17.0924 10.2519 17.2419 11.26C17.3884 12.2483 17.2196 13.2576 16.7594 14.1445C16.2993 15.0313 15.5712 15.7504 14.6788 16.1996C13.7864 16.6488 12.775 16.8052 11.7886 16.6464C10.8022 16.4877 9.89095 16.022 9.18448 15.3155C8.47801 14.609 8.01229 13.6978 7.85357 12.7114C7.69484 11.725 7.85119 10.7136 8.30037 9.8212C8.74956 8.92877 9.46871 8.2007 10.3555 7.74054Z" fill="white"/>
</svg>
